<svg width="105" height="37" fill="none" xmlns="http://www.w3.org/2000/svg"><path d="M104.126 28.68a1.182 1.182 0 0 0 0-1.673l-7.525-7.525a1.182 1.182 0 1 0-1.672 1.672l6.689 6.689-6.69 6.689a1.183 1.183 0 0 0 1.673 1.672l7.525-7.525ZM50.847 14.081a1.182 1.182 0 0 0-1.917 1.384l1.917-1.384Zm24.6 13.761v-1.182 1.182ZM48.93 15.466a1.182 1.182 0 1 0 1.917-1.384l-1.917 1.384ZM4.609 7.521a1.182 1.182 0 0 0-.69-2.262l.69 2.262Zm6.917-4.581a1.182 1.182 0 1 0 .69 2.262l-.69-2.262Zm8.19.299a1.182 1.182 0 0 0-.36-2.337l.36 2.337Zm10.514-2.18a1.182 1.182 0 0 0-.427 2.326l.427-2.326Zm7.789 5.091a1.183 1.183 0 0 0 1.066-2.11L38.02 6.15Zm9.821 4.34a1.182 1.182 0 1 0-1.7 1.643l1.7-1.643Zm3.334 7.751a1.183 1.183 0 0 0 1.755-1.585l-1.755 1.585Zm7.598 3.427a1.183 1.183 0 0 0-1.3 1.976l1.3-1.976Zm5.045 5.22a1.182 1.182 0 1 0 .841-2.21l-.84 2.21Zm8.325-.408a1.182 1.182 0 1 0-.258 2.351l.258-2.35Zm9.735 2.545a1.182 1.182 0 1 0 0-2.364v2.364Zm14.984-2.364a1.182 1.182 0 0 0 0 2.364v-2.364ZM1.344 8.516l3.264-.995-.69-2.262-3.264.995.69 2.262Zm10.87-3.314 3.264-.995-.69-2.262-3.263.995.69 2.262Zm3.264-.995a30.415 30.415 0 0 1 4.238-.968l-.36-2.337c-1.53.235-3.056.582-4.567 1.043l.69 2.262Zm14.324-.822a30.413 30.413 0 0 1 8.216 2.765l1.066-2.11a32.78 32.78 0 0 0-8.855-2.981l-.427 2.326Zm16.337 8.748a30.417 30.417 0 0 1 2.79 3.333l1.917-1.384a32.778 32.778 0 0 0-3.007-3.593l-1.7 1.644Zm2.79 3.333c.701.971 1.45 1.897 2.244 2.775l1.755-1.585a30.357 30.357 0 0 1-2.082-2.574l-1.917 1.384Zm8.542 8.178a32.735 32.735 0 0 0 6.345 3.244l.841-2.21a30.364 30.364 0 0 1-5.886-3.01l-1.3 1.976Zm14.412 5.187c1.177.129 2.366.194 3.564.194v-2.364c-1.111 0-2.215-.061-3.306-.18l-.258 2.35Zm3.564.194h6.43v-2.364h-6.43v2.364Zm21.413 0h6.429v-2.364h-6.43v2.364Z" fill="#A3A3A3"/></svg>