<svg width="249" height="93" viewBox="0 0 249 93" fill="none" xmlns="http://www.w3.org/2000/svg">
<path d="M76.1932 91.5537L76.702 91.2145L76.6959 91.2056L76.1932 91.5537ZM85.6897 51.771L85.1617 51.4625L85.1588 51.4676L85.6897 51.771ZM109.046 16.8648L109.542 17.2219L108.656 16.3936L109.046 16.8648ZM94.5446 29.5696L94.9581 30.0201L94.5446 29.5696ZM77.7331 45.4827L77.3071 45.0441L77.3056 45.0456L77.7331 45.4827ZM58.6118 65.6308L58.1465 65.2339L58.146 65.2345L58.6118 65.6308ZM48.0886 79.8755L47.5569 79.5734L47.5535 79.5795L48.0886 79.8755ZM38.2071 83.3405L38.6963 83.7074L38.7113 83.6874L38.7245 83.6663L38.2071 83.3405ZM43.8537 74.229L44.3749 74.5488L44.378 74.5436L43.8537 74.229ZM52.0669 60.4975L52.592 60.8109L52.5971 60.8021L52.0669 60.4975ZM71.9582 22.1264L72.5214 22.3649L72.5251 22.3559L71.9582 22.1264ZM66.6967 15.7099L67.0894 16.1786L67.091 16.1772L66.6967 15.7099ZM34.7421 48.9477L35.2102 49.3411L35.2124 49.3386L34.7421 48.9477ZM21.6524 65.3741L21.1622 65.0085L21.1611 65.0099L21.6524 65.3741ZM12.2842 78.8489L12.7972 79.1817L12.7996 79.1779L12.2842 78.8489ZM9.71754 86.6771L10.0321 86.1528L10.012 86.1407L9.991 86.1302L9.71754 86.6771ZM10.3592 87.0621H10.9707V86.7159L10.6738 86.5378L10.3592 87.0621ZM8.04922 88.9871L8.32269 89.534L8.37685 89.5069L8.42464 89.4697L8.04922 88.9871ZM-1.0623 87.5754L-0.479198 87.7596L-0.478424 87.7571L-1.0623 87.5754ZM10.8725 66.6574L10.3653 66.3159L10.3644 66.3172L10.8725 66.6574ZM28.0689 39.8362L27.534 39.5399L27.5339 39.54L28.0689 39.8362ZM33.3305 5.95668L32.9463 6.43238L33.3305 5.95668ZM-7.86386 16.2232L-8.24817 15.7476L-8.25012 15.7491L-7.86386 16.2232ZM-20.8253 29.0563L-20.3604 29.4536L-20.3569 29.4494L-20.8253 29.0563ZM-30.5785 43.8144L-31.1291 43.5483L-30.5785 43.8144ZM1.11934 61.6525L1.6065 62.0223L1.61386 62.0121L1.11934 61.6525ZM2.91597 50.7443L2.4836 51.1767L2.53682 51.2299L2.60137 51.2687L2.91597 50.7443ZM4.58428 61.0108L5.1144 61.3157L5.11723 61.3106L4.58428 61.0108ZM-4.27058 69.7374L-4.58854 69.215L-4.59306 69.2178L-4.27058 69.7374ZM-34.6851 68.839L-34.2426 68.4171L-34.6851 68.839ZM-13.5104 12.8866L-13.8893 12.4066L-13.8927 12.4093L-13.5104 12.8866ZM-1.96062 6.34168L-1.73163 6.9087L-1.72619 6.90644L-1.96062 6.34168ZM12.0275 2.10674L12.1454 2.70684L12.1556 2.70464L12.0275 2.10674ZM38.4638 3.51839L38.1279 4.0294L38.1363 4.03492L38.1449 4.04015L38.4638 3.51839ZM35.7688 37.7829L36.3187 38.0504L36.3203 38.047L35.7688 37.7829ZM25.374 55.1076L24.8596 54.7769L25.8548 55.4854L25.374 55.1076ZM35.2555 42.5311L35.7363 42.9089L35.7416 42.9021L35.2555 42.5311ZM45.2653 30.9813L44.8203 30.5619L45.2653 30.9813ZM60.1518 15.8382L59.727 15.3983L59.7226 15.4026L60.1518 15.8382ZM68.6216 9.67829L68.3309 9.14037L68.6216 9.67829ZM77.8615 23.5381L77.3089 23.2763L77.8615 23.5381ZM66.3117 46.2527L66.8478 46.5468L66.8509 46.541L66.3117 46.2527ZM63.36 53.0543L62.7701 52.8934L63.36 53.0543ZM62.3334 56.2626L61.8246 55.9234L62.8109 56.6446L62.3334 56.2626ZM64.7717 53.311L64.3039 52.9171L64.3019 52.9195L64.7717 53.311ZM70.4183 46.7661L69.9625 46.3583L69.9581 46.3634L70.4183 46.7661ZM80.8131 36.1145L81.236 36.5563L81.2408 36.5516L80.8131 36.1145ZM94.6729 23.5381L94.2837 23.0663L94.2762 23.0727L94.6729 23.5381ZM115.206 6.59834L115.595 7.07004L115.6 7.06607L115.206 6.59834ZM122.136 6.72667L121.559 6.93018L121.567 6.95127L121.576 6.97176L122.136 6.72667ZM123.932 12.1166L123.342 12.2756L123.346 12.2891L123.932 12.1166ZM117.773 21.2281L117.336 20.7998L117.335 20.8009L117.773 21.2281ZM90.053 57.9309L89.5231 57.6257L89.5214 57.6287L90.053 57.9309ZM89.5396 86.0354L89.7848 86.5957L89.7917 86.5926L89.5396 86.0354ZM96.5979 83.2122L96.825 82.6444L96.6471 82.5732L96.4604 82.6163L96.5979 83.2122ZM90.438 89.2437L90.1604 88.6989L90.1562 88.701L90.438 89.2437ZM79.2731 92.0972C77.8001 92.0972 77.0425 91.7253 76.702 91.2145L75.6844 91.8929C76.3705 92.9221 77.6662 93.3202 79.2731 93.3202V92.0972ZM76.6959 91.2056C75.2382 89.1 74.4947 86.5317 74.4947 83.4688H73.2717C73.2717 86.737 74.0682 89.5586 75.6904 91.9018L76.6959 91.2056ZM74.4947 83.4688C74.4947 76.2843 78.3545 65.8401 86.2206 52.0744L85.1588 51.4676C77.2829 65.2503 73.2717 75.938 73.2717 83.4688H74.4947ZM86.2177 52.0794C91.2508 43.4633 99.0231 31.8463 109.542 17.2219L108.55 16.5078C98.0225 31.143 90.2239 42.7967 85.1617 51.4625L86.2177 52.0794ZM108.656 16.3936C104.198 20.0805 99.3559 24.3226 94.131 29.1192L94.9581 30.0201C100.171 25.2347 104.997 21.0069 109.436 17.3361L108.656 16.3936ZM94.131 29.1192C88.9073 33.9147 83.2993 39.2231 77.3071 45.0441L78.1592 45.9213C84.1446 40.107 89.7442 34.8066 94.9581 30.0201L94.131 29.1192ZM77.3056 45.0456C69.512 52.6679 63.1245 59.3978 58.1465 65.2339L59.077 66.0276C64.0234 60.2284 70.3834 53.5263 78.1607 45.9199L77.3056 45.0456ZM58.146 65.2345C53.2599 70.9779 49.7237 75.76 47.557 79.5735L48.6203 80.1776C50.7312 76.4623 54.2105 71.7479 59.0775 66.027L58.146 65.2345ZM47.5535 79.5795C45.3828 83.5036 42.854 85.2956 40.0037 85.2956V86.5186C43.4845 86.5186 46.3456 84.2896 48.6237 80.1715L47.5535 79.5795ZM40.0037 85.2956C39.3298 85.2956 38.9337 85.1733 38.7201 85.0226C38.5455 84.8993 38.4336 84.7169 38.4336 84.3671H37.2106C37.2106 85.0441 37.4623 85.6316 38.0149 86.0217C38.5285 86.3842 39.2232 86.5186 40.0037 86.5186V85.2956ZM38.4336 84.3671C38.4336 84.1873 38.4989 83.9706 38.6963 83.7074L37.7179 82.9736C37.402 83.3948 37.2106 83.8626 37.2106 84.3671H38.4336ZM38.7245 83.6663C40.1807 81.3535 42.0643 78.3141 44.3749 74.5488L43.3325 73.9091C41.0231 77.6726 39.1423 80.7075 37.6896 83.0147L38.7245 83.6663ZM44.378 74.5436C46.6883 70.6931 49.4263 66.1155 52.592 60.8109L51.5418 60.1841C48.3764 65.4882 45.639 70.0649 43.3293 73.9144L44.378 74.5436ZM52.5971 60.8021C61.8412 44.7105 68.4859 31.8952 72.5213 22.3649L71.3952 21.888C67.3884 31.3507 60.7723 44.1161 51.5367 60.1929L52.5971 60.8021ZM72.5251 22.3559C73.9792 18.7633 74.7514 16.0549 74.7514 14.2982H73.5284C73.5284 15.7926 72.8461 18.303 71.3914 21.897L72.5251 22.3559ZM74.7514 14.2982C74.7514 13.5627 74.6284 12.9028 74.2908 12.4118C73.9249 11.8796 73.369 11.6334 72.7282 11.6334V12.8564C73.0286 12.8564 73.1785 12.9525 73.2831 13.1047C73.4161 13.2981 73.5284 13.6649 73.5284 14.2982H74.7514ZM72.7282 11.6334C71.9244 11.6334 70.9872 11.987 69.9533 12.5809C68.9041 13.1837 67.6858 14.0752 66.3023 15.2425L67.091 16.1772C68.4452 15.0346 69.6011 14.1936 70.5624 13.6414C71.539 13.0804 72.2487 12.8564 72.7282 12.8564V11.6334ZM66.304 15.2411C56.7693 23.2297 46.0917 34.3389 34.2719 48.5568L35.2124 49.3386C47.0056 35.1525 57.631 24.1031 67.0894 16.1786L66.304 15.2411ZM34.2741 48.5542C29.3059 54.4646 24.935 59.9495 21.1622 65.0085L22.1425 65.7397C25.8985 60.7033 30.2541 55.2372 35.2102 49.3411L34.2741 48.5542ZM21.1611 65.0099C17.4761 69.9804 14.3449 74.4839 11.7687 78.5199L12.7996 79.1779C15.3567 75.1717 18.4709 70.6921 22.1436 65.7383L21.1611 65.0099ZM11.7712 78.5161C10.7354 80.1129 9.9478 81.4994 9.41717 82.6712C8.89259 83.8296 8.59273 84.8344 8.59273 85.6505H9.81569C9.81569 85.0976 10.0291 84.2844 10.5312 83.1757C11.0272 82.0803 11.7796 80.7504 12.7972 79.1816L11.7712 78.5161ZM8.59273 85.6505C8.59273 86.303 8.82331 86.9136 9.44407 87.224L9.991 86.1302C9.92732 86.0983 9.81569 86.0245 9.81569 85.6505H8.59273ZM9.40293 87.2014C9.41336 87.2077 9.40252 87.2012 9.41292 87.2074C9.41821 87.2106 9.41756 87.2102 9.42282 87.2134C9.42658 87.2156 9.43876 87.2229 9.44241 87.2251C9.48184 87.2488 9.44162 87.2246 9.48063 87.2481C9.48642 87.2515 9.51223 87.267 9.5176 87.2702C9.56179 87.2968 9.50954 87.2654 9.55332 87.2917C9.57212 87.303 9.54328 87.2857 9.56205 87.2969C9.57273 87.3033 9.56005 87.2957 9.57071 87.3021C9.5745 87.3044 9.57552 87.305 9.57928 87.3073C9.58062 87.3081 9.58221 87.309 9.58354 87.3098C9.58647 87.3116 9.58486 87.3106 9.58778 87.3124C9.59911 87.3191 9.58491 87.3106 9.5962 87.3174C9.61306 87.3275 9.58772 87.3123 9.60455 87.3224C9.61711 87.3299 9.59613 87.3174 9.60869 87.3249C9.63547 87.341 9.58603 87.3113 9.61281 87.3274C9.63288 87.3394 9.60094 87.3202 9.62099 87.3323C9.6399 87.3436 9.66642 87.3595 9.68365 87.3699C9.71142 87.3865 9.67088 87.3622 9.69854 87.3788C9.71475 87.3885 9.68968 87.3735 9.70586 87.3832C9.70723 87.384 9.70813 87.3846 9.7095 87.3854C9.71826 87.3906 9.70435 87.3823 9.71311 87.3875C9.71371 87.3879 9.71431 87.3883 9.7149 87.3886C9.7155 87.389 9.7161 87.3893 9.7167 87.3897C9.7173 87.3901 9.71789 87.3904 9.71849 87.3908C9.71909 87.3911 9.71968 87.3915 9.72027 87.3918C9.72097 87.3923 9.72314 87.3936 9.72383 87.394C9.72442 87.3943 9.72501 87.3947 9.7256 87.395C9.72618 87.3954 9.72678 87.3957 9.72736 87.3961C9.73726 87.402 9.7245 87.3944 9.73437 87.4003C9.73792 87.4024 9.73778 87.4024 9.7413 87.4045C9.7762 87.4254 9.73377 87.3999 9.76825 87.4206C9.79719 87.438 9.76542 87.4189 9.79394 87.436C9.83214 87.459 9.78059 87.428 9.81838 87.4507C9.82859 87.4568 9.83177 87.4587 9.84156 87.4646C9.84896 87.4691 9.84539 87.4669 9.85268 87.4713C9.85899 87.4751 9.85185 87.4708 9.85813 87.4746C9.87112 87.4824 9.85052 87.47 9.86349 87.4778C9.86655 87.4796 9.86575 87.4791 9.86878 87.4809C9.87854 87.4868 9.86426 87.4782 9.87399 87.4841C9.87674 87.4857 9.8764 87.4855 9.87912 87.4872C9.89988 87.4996 9.86344 87.4777 9.88417 87.4902C9.89296 87.4955 9.88039 87.4879 9.88915 87.4932C9.89119 87.4944 9.89202 87.4949 9.89404 87.4961C9.89738 87.4981 9.89313 87.4956 9.89646 87.4976C9.90424 87.5022 9.89108 87.4943 9.89886 87.499C9.89926 87.4992 9.89965 87.4995 9.90005 87.4997C9.90045 87.5 9.90084 87.5002 9.90124 87.5004C9.90276 87.5013 9.90208 87.5009 9.9036 87.5018C9.92403 87.5141 9.88786 87.4924 9.90826 87.5046C9.91831 87.5107 9.90051 87.5 9.91056 87.506C9.91645 87.5096 9.90696 87.5039 9.91284 87.5074C9.91503 87.5087 9.91969 87.5115 9.92177 87.5127C9.93275 87.5193 9.92813 87.5166 9.93869 87.5229C9.96684 87.5398 9.92663 87.5157 9.95435 87.5323C9.96984 87.5416 9.9537 87.5319 9.96877 87.5409C10.0016 87.5607 9.94274 87.5253 9.9755 87.545C9.97604 87.5453 9.97661 87.5456 9.97714 87.546C9.99224 87.555 9.96366 87.5379 9.97875 87.5469C9.98067 87.5481 9.98004 87.5477 9.98193 87.5488C9.98271 87.5493 9.98735 87.5521 9.98803 87.5525C9.98901 87.5531 9.98854 87.5528 9.98951 87.5534C9.99066 87.5541 9.98983 87.5536 9.99097 87.5543C9.99137 87.5545 9.99201 87.5549 9.99241 87.5551C9.99563 87.5571 9.99062 87.5541 9.99383 87.556C10.0007 87.5601 9.98972 87.5535 9.99661 87.5576C9.99684 87.5578 9.99707 87.5579 9.9973 87.5581C9.99752 87.5582 9.99775 87.5583 9.99797 87.5585C9.9982 87.5586 9.99842 87.5587 9.99865 87.5589C9.99887 87.559 9.99909 87.5591 9.99931 87.5593C10.0044 87.5623 9.9969 87.5578 10.0019 87.5608C10.0022 87.561 10.0024 87.5611 10.0026 87.5612C10.0028 87.5614 10.003 87.5615 10.0032 87.5616C10.0034 87.5617 10.0036 87.5619 10.0039 87.562C10.0041 87.5621 10.0043 87.5622 10.0045 87.5624C10.0097 87.5655 10.0091 87.5651 10.0139 87.568C10.0147 87.5685 10.0153 87.5688 10.016 87.5693C10.0162 87.5694 10.0164 87.5695 10.0166 87.5696C10.0167 87.5697 10.0169 87.5698 10.0171 87.5699C10.0173 87.57 10.0174 87.5701 10.0176 87.5702C10.0178 87.5703 10.0179 87.5704 10.0181 87.5705C10.02 87.5717 10.0203 87.5718 10.022 87.5729C10.0249 87.5746 10.0211 87.5723 10.0239 87.574C10.024 87.5741 10.0242 87.5742 10.0243 87.5743C10.0245 87.5744 10.0246 87.5744 10.0248 87.5745C10.0249 87.5746 10.0251 87.5747 10.0252 87.5748C10.0253 87.5749 10.0255 87.575 10.0256 87.5751C10.0272 87.576 10.0258 87.5752 10.0273 87.5761C10.0276 87.5763 10.0278 87.5764 10.0281 87.5766C10.0283 87.5766 10.0284 87.5767 10.0285 87.5768C10.0287 87.5769 10.0288 87.577 10.0289 87.577C10.0358 87.5812 10.0281 87.5765 10.0346 87.5804C10.0546 87.5925 10.0237 87.5739 10.0421 87.5849C10.043 87.5855 10.0424 87.5851 10.0432 87.5856C10.044 87.5861 10.0433 87.5856 10.044 87.5861C10.0441 87.5861 10.0442 87.5862 10.0442 87.5862C10.0447 87.5865 10.0439 87.586 10.0443 87.5863C10.0444 87.5863 10.0444 87.5863 10.0444 87.5863C10.0445 87.5864 10.0445 87.5864 10.0445 87.5864C10.0446 87.5864 10.0446 87.5864 10.0446 87.5864C10.0446 87.5864 10.0446 87.5864 10.0446 87.5864C10.0446 87.5864 10.0446 87.5864 10.3592 87.0621C10.6738 86.5378 10.6738 86.5378 10.6738 86.5378C10.6738 86.5378 10.6738 86.5378 10.6738 86.5378C10.6738 86.5377 10.6738 86.5377 10.6738 86.5377C10.6736 86.5376 10.6738 86.5378 10.6736 86.5377C10.6733 86.5375 10.6738 86.5378 10.6734 86.5375C10.6722 86.5368 10.6744 86.5381 10.6732 86.5374C10.672 86.5367 10.6728 86.5372 10.6713 86.5362C10.6693 86.5351 10.6706 86.5358 10.6682 86.5344C10.6644 86.5321 10.6679 86.5342 10.6638 86.5317C10.6631 86.5313 10.6638 86.5318 10.6631 86.5314C10.6627 86.5311 10.6629 86.5312 10.6625 86.531C10.6619 86.5306 10.6617 86.5305 10.6611 86.5301C10.6588 86.5288 10.662 86.5307 10.6597 86.5293C10.6543 86.5261 10.6635 86.5316 10.6581 86.5284C10.6476 86.5221 10.6655 86.5327 10.6548 86.5264C10.6386 86.5167 10.6693 86.5351 10.6531 86.5253C10.642 86.5187 10.6623 86.5309 10.6512 86.5242C10.6472 86.5218 10.6476 86.522 10.6431 86.5193C10.6425 86.519 10.6347 86.5143 10.6337 86.5137C10.6315 86.5124 10.6333 86.5135 10.6311 86.5122C10.6244 86.5081 10.6353 86.5147 10.6285 86.5106C10.5969 86.4916 10.6548 86.5263 10.623 86.5073C10.6198 86.5054 10.6248 86.5084 10.6216 86.5064C10.6203 86.5057 10.6215 86.5064 10.6202 86.5056C10.6023 86.4949 10.6351 86.5145 10.6172 86.5038C10.6144 86.5021 10.614 86.5019 10.6111 86.5002C10.5691 86.475 10.6404 86.5177 10.598 86.4923C10.5797 86.4813 10.6022 86.4948 10.5836 86.4836C10.5704 86.4757 10.5815 86.4824 10.5679 86.4742C10.5664 86.4733 10.5673 86.4739 10.5658 86.473C10.5655 86.4728 10.5652 86.4726 10.5648 86.4724C10.5645 86.4722 10.5641 86.472 10.5638 86.4717C10.5603 86.4696 10.5631 86.4714 10.5596 86.4692C10.5564 86.4673 10.5607 86.4699 10.5575 86.468C10.5571 86.4678 10.5557 86.4669 10.5553 86.4667C10.5539 86.4658 10.5546 86.4662 10.5532 86.4654C10.5527 86.4651 10.5514 86.4643 10.551 86.4641C10.5338 86.4537 10.5504 86.4637 10.5328 86.4532C10.5324 86.4529 10.532 86.4527 10.5316 86.4525C10.5312 86.4522 10.5308 86.452 10.5304 86.4517C10.5301 86.4515 10.5297 86.4513 10.5293 86.451C10.5289 86.4508 10.5285 86.4506 10.5281 86.4503C10.5268 86.4496 10.5245 86.4482 10.5233 86.4474C10.4928 86.4292 10.5439 86.4598 10.5134 86.4415C10.4986 86.4326 10.5257 86.4489 10.5109 86.44C10.5093 86.4391 10.5098 86.4394 10.5083 86.4385C10.508 86.4382 10.5036 86.4356 10.5032 86.4354C10.5028 86.4352 10.4932 86.4294 10.4927 86.4291C10.4641 86.4119 10.4998 86.4334 10.4708 86.4159C10.4667 86.4135 10.452 86.4047 10.4476 86.402C10.4203 86.3856 10.4509 86.404 10.4231 86.3874C10.3895 86.3672 10.4315 86.3924 10.3975 86.3719C10.3905 86.3678 10.3978 86.3721 10.3908 86.368C10.3826 86.3631 10.3924 86.3689 10.3841 86.364C10.3711 86.3562 10.3904 86.3677 10.3774 86.3599C10.3616 86.3505 10.3863 86.3652 10.3705 86.3558C10.3599 86.3494 10.3673 86.3539 10.3566 86.3474C10.3531 86.3453 10.3459 86.341 10.3423 86.3389C10.3417 86.3385 10.3411 86.3381 10.3405 86.3378C10.3399 86.3374 10.3393 86.3371 10.3387 86.3367C10.3381 86.3363 10.3375 86.336 10.3369 86.3356C10.3363 86.3353 10.3357 86.3349 10.3351 86.3345C10.3308 86.3319 10.3321 86.3327 10.3277 86.3301C10.3268 86.3296 10.325 86.3285 10.3241 86.3279C10.3183 86.3244 10.3261 86.3292 10.3203 86.3257C10.3113 86.3203 10.3219 86.3266 10.3129 86.3212C10.3107 86.3199 10.3113 86.3202 10.3091 86.3189C10.3032 86.3154 10.3112 86.3202 10.3053 86.3167C10.3052 86.3166 10.3016 86.3144 10.3015 86.3144C10.3009 86.314 10.3002 86.3136 10.2996 86.3132C10.2989 86.3128 10.2983 86.3125 10.2977 86.3121C10.2522 86.2848 10.3277 86.3301 10.2822 86.3028C10.245 86.2804 10.3154 86.3227 10.2782 86.3004C10.2776 86.3 10.2769 86.2996 10.2763 86.2992C10.2756 86.2988 10.2749 86.2984 10.2743 86.298C10.2736 86.2977 10.273 86.2973 10.2723 86.2969C10.2716 86.2965 10.271 86.2961 10.2703 86.2957C10.2697 86.2953 10.269 86.2949 10.2683 86.2945C10.2677 86.2941 10.267 86.2937 10.2663 86.2933C10.2632 86.2914 10.2534 86.2855 10.2502 86.2836C10.2328 86.2732 10.2513 86.2842 10.2338 86.2737C10.2061 86.2572 10.2572 86.2878 10.2296 86.2712C10.2289 86.2708 10.2282 86.2704 10.2275 86.27C10.2268 86.2696 10.2261 86.2691 10.2254 86.2687C10.2214 86.2663 10.221 86.2661 10.217 86.2637C10.2079 86.2582 10.192 86.2487 10.1825 86.243C10.1451 86.2205 10.2024 86.2549 10.1648 86.2324C10.1475 86.222 10.1732 86.2374 10.1559 86.227C10.1551 86.2265 10.1544 86.2261 10.1536 86.2256C10.1529 86.2252 10.1521 86.2247 10.1513 86.2243C10.1506 86.2238 10.1498 86.2234 10.1491 86.2229C10.1483 86.2225 10.1476 86.222 10.1468 86.2216C10.1371 86.2157 10.12 86.2055 10.1098 86.1994C10.1074 86.1979 10.1029 86.1952 10.1004 86.1937C10.0987 86.1927 10.0973 86.1919 10.0957 86.1909C10.0949 86.1904 10.0941 86.1899 10.0933 86.1894C10.0925 86.189 10.0917 86.1885 10.0909 86.188C10.06 86.1695 10.1026 86.195 10.0716 86.1764C10.0354 86.1547 10.0884 86.1865 10.052 86.1647C10.05 86.1635 10.0442 86.16 10.0421 86.1588C10.0366 86.1554 10.0377 86.1561 10.0321 86.1528L9.40293 87.2014ZM9.74771 87.0621C9.74771 86.9576 9.77519 86.8797 9.78919 86.8446C9.80508 86.8049 9.82178 86.7764 9.83063 86.7622C9.84034 86.7465 9.84832 86.7357 9.85218 86.7307C9.85435 86.7278 9.85603 86.7257 9.85707 86.7244C9.85813 86.7231 9.85874 86.7224 9.85883 86.7223C9.85892 86.7222 9.85762 86.7237 9.85454 86.727C9.85151 86.7303 9.84728 86.7347 9.84165 86.7405C9.83025 86.7521 9.81491 86.7671 9.79496 86.786C9.71272 86.8636 9.57994 86.9797 9.39024 87.1377C9.01337 87.4518 8.44242 87.9066 7.67381 88.5044L8.42464 89.4697C9.19601 88.8698 9.78004 88.4049 10.1732 88.0773C10.3685 87.9145 10.5244 87.7792 10.6347 87.6751C10.6883 87.6244 10.7425 87.5705 10.7874 87.5182C10.8089 87.4931 10.8403 87.4545 10.8697 87.4071C10.8817 87.3878 10.9707 87.2527 10.9707 87.0621H9.74771ZM7.77576 88.4401C6.50138 89.0773 5.05678 89.4022 3.42929 89.4022V90.6252C5.22398 90.6252 6.85933 90.2657 8.32269 89.534L7.77576 88.4401ZM3.42929 89.4022C1.69094 89.4022 0.57283 89.1954 -0.0326614 88.8667C-0.319618 88.711 -0.447456 88.5517 -0.503265 88.4134C-0.559093 88.275 -0.57766 88.0713 -0.479202 87.7596L-1.6454 87.3913C-1.8036 87.8923 -1.82752 88.3998 -1.63737 88.871C-1.44722 89.3423 -1.07777 89.6909 -0.616127 89.9415C0.275581 90.4256 1.65993 90.6252 3.42929 90.6252V89.4022ZM-0.478424 87.7571C0.688522 84.0062 4.61297 77.1062 11.3806 66.9976L10.3644 66.3172C3.61449 76.3994 -0.417606 83.4448 -1.64618 87.3938L-0.478424 87.7571ZM11.3798 66.9989C20.1898 53.9121 25.9368 44.9503 28.6039 40.1323L27.5339 39.54C24.8967 44.3041 19.1794 53.2231 10.3653 66.3159L11.3798 66.9989ZM28.6039 40.1324C34.3479 29.7589 37.2786 21.3894 37.2786 15.0682H36.0556C36.0556 21.0669 33.2542 29.2093 27.534 39.5399L28.6039 40.1324ZM37.2786 15.0682C37.2786 10.6996 36.1427 7.44206 33.7147 5.48099L32.9463 6.43238C34.9671 8.06459 36.0556 10.8814 36.0556 15.0682H37.2786ZM33.7147 5.48099C31.3339 3.55803 27.7897 2.65024 23.1923 2.65024V3.8732C27.6637 3.8732 30.8783 4.76205 32.9463 6.43238L33.7147 5.48099ZM23.1923 2.65024C12.9984 2.65024 2.51461 7.05124 -8.24817 15.7476L-7.47956 16.6988C3.14623 8.11317 13.3666 3.8732 23.1923 3.8732V2.65024ZM-8.25012 15.7491C-12.9013 19.539 -17.2491 23.8441 -21.2937 28.6632L-20.3569 29.4494C-16.3594 24.6864 -12.0662 20.4361 -7.47761 16.6972L-8.25012 15.7491ZM-21.2902 28.6591C-25.3424 33.401 -28.6233 38.364 -31.1291 43.5483L-30.028 44.0805C-27.5716 38.9983 -24.3503 34.1226 -20.3605 29.4536L-21.2902 28.6591ZM-31.1291 43.5483C-33.6443 48.7522 -34.9116 53.8904 -34.9116 58.9575H-33.6886C-33.6886 54.1004 -32.4749 49.1432 -30.028 44.0805L-31.1291 43.5483ZM-34.9116 58.9575C-34.9116 63.4919 -33.8441 67.0063 -31.601 69.3867C-29.3515 71.774 -26.0197 72.9155 -21.7236 72.9155V71.6925C-25.812 71.6925 -28.7683 70.6096 -30.711 68.548C-32.6601 66.4796 -33.6886 63.3208 -33.6886 58.9575H-34.9116ZM-21.7236 72.9155C-11.7165 72.9155 -3.91226 69.2928 1.6064 62.0222L0.632271 61.2828C-4.62891 68.2142 -12.0533 71.6925 -21.7236 71.6925V72.9155ZM1.61386 62.0121C3.71315 59.1256 4.81077 56.3493 4.81077 53.6959H3.58781C3.58781 56.0047 2.63213 58.5328 0.624809 61.2928L1.61386 62.0121ZM4.81077 53.6959C4.81077 52.1341 4.34673 50.8897 3.23058 50.22L2.60137 51.2687C3.1963 51.6256 3.58781 52.3489 3.58781 53.6959H4.81077ZM3.34835 50.3119C3.36339 50.327 3.37528 50.3427 3.38416 50.3575C3.39292 50.3721 3.39759 50.3838 3.39982 50.3905C3.40388 50.4027 3.39912 50.3958 3.39912 50.3593H2.17616C2.17616 50.6247 2.24292 50.936 2.4836 51.1767L3.34835 50.3119ZM3.39912 50.3593C3.39912 50.3506 3.40049 50.3726 3.38269 50.4082C3.36363 50.4463 3.33685 50.4714 3.31932 50.4831C3.30589 50.4921 3.31124 50.4844 3.35341 50.475C3.39534 50.4657 3.46135 50.4575 3.55763 50.4575V49.2345C3.25233 49.2345 2.91643 49.2819 2.64095 49.4655C2.32171 49.6784 2.17616 50.0101 2.17616 50.3593H3.39912ZM3.55763 50.4575C4.52504 50.4575 5.15912 50.7653 5.57436 51.3083C6.01332 51.8823 6.28276 52.8155 6.28276 54.2093H7.50573C7.50573 52.6942 7.21906 51.4458 6.54583 50.5654C5.84885 49.654 4.81462 49.2345 3.55763 49.2345V50.4575ZM6.28276 54.2093C6.28276 55.8491 5.57322 58.0055 4.05133 60.711L5.11723 61.3106C6.6753 58.5407 7.50573 56.1627 7.50573 54.2093H6.28276ZM4.05418 60.706C2.1457 64.0251 -0.726154 66.864 -4.58852 69.215L-3.95265 70.2597C0.0559769 67.8197 3.08736 64.8409 5.11438 61.3156L4.05418 60.706ZM-4.59306 69.2178C-9.45581 72.2361 -14.8191 73.7458 -20.697 73.7458V74.9688C-14.5973 74.9688 -9.00964 73.3985 -3.94811 70.2569L-4.59306 69.2178ZM-20.697 73.7458C-26.3739 73.7458 -30.8673 71.957 -34.2426 68.4171L-35.1277 69.261C-31.4875 73.0788 -26.6555 74.9688 -20.697 74.9688V73.7458ZM-34.2426 68.4171C-37.6228 64.8719 -39.3352 60.1992 -39.3352 54.3376H-40.5582C-40.5582 60.4536 -38.7628 65.4485 -35.1277 69.261L-34.2426 68.4171ZM-39.3352 54.3376C-39.3352 41.1004 -30.7025 27.4404 -13.1282 13.3638L-13.8927 12.4093C-31.5667 26.5657 -40.5582 40.5397 -40.5582 54.3376H-39.3352ZM-13.1315 13.3665C-9.93261 10.841 -6.13492 8.68691 -1.73164 6.90867L-2.1896 5.77469C-6.68395 7.58971 -10.5862 9.79885 -13.8893 12.4066L-13.1315 13.3665ZM-1.72619 6.90644C2.77081 5.03976 7.39447 3.63996 12.1454 2.70675L11.9096 1.50672C7.07845 2.45571 2.37671 3.87921 -2.19505 5.77692L-1.72619 6.90644ZM12.1556 2.70464C16.9133 1.68514 21.2758 1.17825 25.2456 1.17825V-0.0447149C21.1734 -0.0447149 16.7237 0.475039 11.8994 1.50883L12.1556 2.70464ZM25.2456 1.17825C31.0115 1.17825 35.2777 2.15641 38.1279 4.0294L38.7996 3.00737C35.661 0.944865 31.1151 -0.0447149 25.2456 -0.0447149V1.17825ZM38.1449 4.04015C40.9848 5.77563 42.4722 8.87155 42.4722 13.5282H43.6952C43.6952 8.60284 42.1026 5.02553 38.7826 2.99662L38.1449 4.04015ZM42.4722 13.5282C42.4722 19.3764 40.0834 27.3598 35.2173 37.5187L36.3203 38.047C41.2074 27.844 43.6952 19.6577 43.6952 13.5282H42.4722ZM35.2189 37.5154C33.6972 40.6433 30.252 46.3888 24.8596 54.7769L25.8883 55.4382C31.2758 47.0577 34.7604 41.2535 36.3187 38.0504L35.2189 37.5154ZM25.8548 55.4854L35.7363 42.9089L34.7747 42.1533L24.8931 54.7298L25.8548 55.4854ZM35.7416 42.9021C38.2052 39.6739 41.5264 35.8408 45.7103 31.4006L44.8203 30.5619C40.62 35.0194 37.2679 38.8862 34.7694 42.1601L35.7416 42.9021ZM45.7103 31.4006C49.896 26.9588 54.8526 21.9166 60.5809 16.2738L59.7226 15.4026C53.9867 21.0529 49.019 26.1062 44.8203 30.5619L45.7103 31.4006ZM60.5765 16.2781C63.0159 13.9228 65.7937 11.902 68.9124 10.2162L68.3309 9.14037C65.1186 10.8767 62.2498 12.9625 59.727 15.3983L60.5765 16.2781ZM68.9124 10.2162C72.0379 8.52677 74.6278 7.72314 76.7065 7.72314V6.50018C74.3364 6.50018 71.5364 7.40764 68.3309 9.14037L68.9124 10.2162ZM76.7065 7.72314C78.1435 7.72314 79.1112 8.10074 79.7275 8.75135C80.3498 9.40817 80.7149 10.449 80.7149 11.9883H81.9379C81.9379 10.2765 81.5331 8.87899 80.6153 7.91027C79.6917 6.93536 78.3494 6.50018 76.7065 6.50018V7.72314ZM80.7149 11.9883C80.7149 14.6715 79.6091 18.4202 77.3089 23.2763L78.4141 23.7998C80.7338 18.9027 81.9379 14.9516 81.9379 11.9883H80.7149ZM77.3089 23.2763C74.2344 29.7669 70.3892 37.3293 65.7724 45.9644L66.8509 46.541C71.474 37.8942 75.3287 30.3135 78.4141 23.7998L77.3089 23.2763ZM65.7755 45.9587C64.3091 48.6327 63.301 50.9468 62.7701 52.8934L63.95 53.2152C64.4457 51.3973 65.4053 49.1772 66.8478 46.5467L65.7755 45.9587ZM62.7701 52.8934C62.5144 53.8312 62.3031 54.5593 62.136 55.0816C62.0523 55.3432 61.9816 55.547 61.9236 55.6969C61.8946 55.7718 61.8705 55.8288 61.8511 55.8703C61.8303 55.9151 61.8213 55.9283 61.8246 55.9234L62.8422 56.6018C62.9255 56.4768 62.9991 56.3061 63.064 56.1384C63.1344 55.9568 63.2134 55.7275 63.3008 55.4544C63.4758 54.9073 63.6924 54.1596 63.95 53.2152L62.7701 52.8934ZM62.8109 56.6446C63.1485 56.2226 63.9569 55.2439 65.2414 53.7024L64.3019 52.9195C63.0198 54.458 62.2027 55.447 61.8559 55.8806L62.8109 56.6446ZM65.2394 53.7048C66.6047 52.0836 68.484 49.9053 70.8784 47.1687L69.9581 46.3634C67.5615 49.1023 65.6764 51.2872 64.304 52.9171L65.2394 53.7048ZM70.874 47.1738C73.7699 43.9371 77.2234 40.3981 81.236 36.5562L80.3902 35.6729C76.3607 39.5309 72.8843 43.0928 69.9626 46.3583L70.874 47.1738ZM81.2408 36.5516C85.25 32.6277 89.8592 28.445 95.0696 24.0034L94.2762 23.0727C89.0489 27.5288 84.4183 31.7304 80.3854 35.6775L81.2408 36.5516ZM95.062 24.0098L115.595 7.07002L114.817 6.12666L94.2838 23.0664L95.062 24.0098ZM115.6 7.06607C117.182 5.73367 118.498 5.15652 119.569 5.15652V3.93356C118.073 3.93356 116.481 4.72528 114.812 6.13061L115.6 7.06607ZM119.569 5.15652C120.033 5.15652 120.404 5.29329 120.713 5.55636C121.033 5.82861 121.326 6.26842 121.559 6.93018L122.712 6.52315C122.433 5.7305 122.04 5.07949 121.505 4.62453C120.959 4.16039 120.303 3.93356 119.569 3.93356V5.15652ZM121.576 6.97176C122.158 8.30204 122.747 10.0666 123.342 12.2756L124.523 11.9576C123.92 9.71772 123.312 7.88903 122.696 6.48158L121.576 6.97176ZM123.346 12.2891C123.4 12.4745 123.396 12.7916 123.213 13.2961C123.034 13.792 122.705 14.4056 122.207 15.1428C121.211 16.616 119.594 18.4995 117.336 20.7998L118.209 21.6564C120.486 19.3368 122.163 17.3918 123.22 15.8278C123.748 15.0464 124.136 14.3393 124.363 13.7123C124.587 13.0939 124.678 12.4859 124.519 11.944L123.346 12.2891ZM117.335 20.8009C106.604 31.7892 97.3336 44.0646 89.5231 57.6257L90.5828 58.2361C98.3432 44.762 107.552 32.5689 118.21 21.6553L117.335 20.8009ZM89.5214 57.6287C85.9627 63.8886 83.2849 69.2953 81.4953 73.8447C79.7097 78.384 78.79 82.1148 78.79 85.0088H80.0129C80.0129 82.3417 80.8685 78.7791 82.6334 74.2924C84.3943 69.8159 87.0423 64.4641 90.5845 58.2331L89.5214 57.6287ZM78.79 85.0088C78.79 86.2966 78.9974 87.3686 79.4995 88.1351C80.0312 88.9466 80.8443 89.3419 81.8398 89.3419V88.1189C81.2097 88.1189 80.8036 87.8939 80.5225 87.4649C80.2119 86.9908 80.0129 86.202 80.0129 85.0088H78.79ZM81.8398 89.3419C82.4709 89.3419 83.4617 89.0801 84.7367 88.6338C86.0409 88.1774 87.7251 87.4968 89.7847 86.5957L89.2945 85.4752C87.2476 86.3708 85.5952 87.0376 84.3327 87.4795C83.0411 87.9316 82.2353 88.1189 81.8398 88.1189V89.3419ZM89.7917 86.5926C93.4002 84.9601 95.6941 84.0483 96.7354 83.808L96.4604 82.6163C95.2772 82.8894 92.8656 83.8597 89.2876 85.4783L89.7917 86.5926ZM96.3708 83.7799C96.544 83.8492 96.6208 83.9073 96.6467 83.9333C96.657 83.9436 96.651 83.9406 96.6427 83.9224C96.6336 83.9023 96.628 83.8776 96.628 83.8538H97.851C97.851 83.1872 97.2876 82.8295 96.825 82.6444L96.3708 83.7799ZM96.628 83.8538C96.628 83.9943 96.5641 84.2211 96.322 84.55C96.0827 84.8751 95.703 85.2537 95.1593 85.6845C94.0728 86.5456 92.4142 87.5507 90.1604 88.6989L90.7155 89.7886C92.9961 88.6268 94.7383 87.5786 95.9189 86.643C96.5089 86.1755 96.9793 85.72 97.3069 85.275C97.6316 84.834 97.851 84.355 97.851 83.8538H96.628ZM90.1562 88.701C85.7429 90.9926 82.1244 92.0972 79.2731 92.0972V93.3202C82.4107 93.3202 86.2354 92.1148 90.7197 89.7864L90.1562 88.701ZM102.853 83.2122L102.469 83.6879L102.474 83.6924L102.48 83.6968L102.853 83.2122ZM110.681 55.3643L110.242 54.9391L110.239 54.9417L110.681 55.3643ZM135.834 45.2261L135.418 45.6742L135.435 45.6895L135.452 45.7036L135.834 45.2261ZM126.338 63.1925L126.02 62.6697L126.02 62.6699L126.338 63.1925ZM107.473 69.0957L107.666 68.5156L107.185 68.3551L106.938 68.7987L107.473 69.0957ZM128.391 74.4856L128.008 74.0089L128.002 74.014L127.995 74.0193L128.391 74.4856ZM141.737 61.1392L142.219 61.5159L142.227 61.5061L141.737 61.1392ZM143.534 62.5508L144.022 62.9199L144.029 62.9105L143.534 62.5508ZM135.834 71.2773L136.26 71.7165L135.834 71.2773ZM126.979 78.5922L126.628 78.0919L126.62 78.0977L126.979 78.5922ZM123.771 61.6525L124.094 62.1715L124.108 62.1628L124.122 62.1534L123.771 61.6525ZM128.776 57.6742L129.184 58.1299L129.185 58.1287L128.776 57.6742ZM132.883 53.0543L132.387 52.6963L132.38 52.7056L132.374 52.7151L132.883 53.0543ZM121.076 53.0543L120.685 52.5845L120.681 52.5875L121.076 53.0543ZM114.659 59.2142L115.109 59.6289L114.659 59.2142ZM109.398 66.2724L108.87 65.9632L108.489 66.614L109.205 66.8525L109.398 66.2724ZM110.296 85.1673C107.697 85.1673 105.346 84.3586 103.226 82.7275L102.48 83.6968C104.809 85.4879 107.42 86.3903 110.296 86.3903V85.1673ZM103.237 82.7365C101.159 81.0582 100.128 78.8817 100.128 76.1539H98.9049C98.9049 79.2438 100.098 81.7728 102.469 83.6879L103.237 82.7365ZM100.128 76.1539C100.128 70.3211 103.712 63.5388 111.123 55.7868L110.239 54.9417C102.764 62.7605 98.9049 69.8381 98.9049 76.1539H100.128ZM111.121 55.7894C118.707 47.9476 125.356 44.1692 131.086 44.1692V42.9463C124.838 42.9463 117.884 47.0389 110.242 54.9391L111.121 55.7894ZM131.086 44.1692C132.933 44.1692 134.356 44.6876 135.418 45.6742L136.25 44.778C134.917 43.5401 133.175 42.9463 131.086 42.9463V44.1692ZM135.452 45.7036C136.602 46.6231 137.148 47.7357 137.148 49.076H138.371C138.371 47.3364 137.633 45.8823 136.216 44.7486L135.452 45.7036ZM137.148 49.076C137.148 53.5206 133.605 58.0676 126.02 62.6697L126.655 63.7152C134.299 59.0775 138.371 54.2135 138.371 49.076H137.148ZM126.02 62.6699C119.297 66.7548 113.724 68.7409 109.27 68.7409V69.9639C114.055 69.9639 119.861 67.8433 126.655 63.715L126.02 62.6699ZM109.27 68.7409C108.634 68.7409 108.103 68.6613 107.666 68.5156L107.28 69.6758C107.869 69.8724 108.536 69.9639 109.27 69.9639V68.7409ZM106.938 68.7987C105.606 71.1967 104.936 73.7369 104.936 76.4106H106.159C106.159 73.951 106.773 71.6146 108.007 69.3927L106.938 68.7987ZM104.936 76.4106C104.936 78.7205 105.48 80.5667 106.675 81.8349C107.876 83.1099 109.636 83.6953 111.836 83.6953V82.4723C109.844 82.4723 108.46 81.9455 107.565 80.9962C106.664 80.04 106.159 78.5495 106.159 76.4106H104.936ZM111.836 83.6953C116.35 83.6953 122.016 80.6941 128.786 74.952L127.995 74.0193C121.248 79.7414 115.878 82.4723 111.836 82.4723V83.6953ZM128.774 74.9623C134.025 70.7442 138.508 66.2625 142.219 61.5158L141.256 60.7625C137.609 65.4268 133.194 69.8427 128.008 74.0089L128.774 74.9623ZM142.227 61.5061C142.592 61.0184 142.916 60.6826 143.195 60.4734C143.475 60.2631 143.67 60.2107 143.791 60.2107V58.9877C143.313 58.9877 142.865 59.1919 142.461 59.495C142.056 59.7991 141.652 60.2333 141.248 60.7723L142.227 61.5061ZM143.791 60.2107C143.953 60.2107 143.963 60.2509 143.936 60.2241C143.909 60.1973 143.949 60.2068 143.949 60.3692H145.172C145.172 60.0183 145.084 59.6428 144.801 59.3593C144.517 59.0759 144.142 58.9877 143.791 58.9877V60.2107ZM143.949 60.3692C143.949 60.4992 143.903 60.7157 143.751 61.0392C143.602 61.3563 143.368 61.7392 143.04 62.1911L144.029 62.9105C144.384 62.4213 144.664 61.9701 144.857 61.5599C145.047 61.1562 145.172 60.7524 145.172 60.3692H143.949ZM143.046 62.1818C140.669 65.3234 138.123 68.2086 135.409 70.8382L136.26 71.7165C139.021 69.0417 141.608 66.1092 144.022 62.9198L143.046 62.1818ZM135.409 70.8382C132.694 73.4677 129.767 75.8856 126.628 78.0919L127.331 79.0925C130.522 76.85 133.499 74.3913 136.26 71.7165L135.409 70.8382ZM126.62 78.0977C120.063 82.8658 114.634 85.1673 110.296 85.1673V86.3903C115.028 86.3903 120.72 83.9007 127.339 79.0868L126.62 78.0977ZM111.066 67.1406C114.495 67.1406 118.851 65.4376 124.094 62.1715L123.448 61.1335C118.253 64.3695 114.14 65.9176 111.066 65.9176V67.1406ZM124.122 62.1534C125.854 60.9411 127.541 59.5998 129.184 58.1299L128.368 57.2185C126.76 58.6574 125.111 59.9683 123.42 61.1515L124.122 62.1534ZM129.185 58.1287C130.925 56.5625 132.33 54.9847 133.391 53.3935L132.374 52.7151C131.381 54.2038 130.049 55.7059 128.367 57.2197L129.185 58.1287ZM133.378 53.4123C134.525 51.8246 135.162 50.3295 135.162 48.9477H133.939C133.939 49.9614 133.465 51.204 132.387 52.6963L133.378 53.4123ZM135.162 48.9477C135.162 48.1933 134.839 47.573 134.199 47.1765C133.607 46.81 132.797 46.6679 131.856 46.6679V47.8909C132.711 47.8909 133.249 48.0268 133.555 48.2164C133.813 48.376 133.939 48.5898 133.939 48.9477H135.162ZM131.856 46.6679C130.429 46.6679 128.786 47.1992 126.947 48.1841C125.101 49.173 123.013 50.6443 120.685 52.5845L121.468 53.524C123.759 51.6143 125.777 50.1982 127.525 49.2621C129.28 48.322 130.716 47.8909 131.856 47.8909V46.6679ZM120.681 52.5875C118.437 54.4865 116.28 56.5573 114.21 58.7994L115.109 59.6289C117.146 57.4223 119.267 55.3864 121.471 53.5211L120.681 52.5875ZM114.21 58.7994C112.129 61.0544 110.348 63.4423 108.87 65.9632L109.925 66.5816C111.357 64.1404 113.084 61.8228 115.109 59.6289L114.21 58.7994ZM109.205 66.8525C109.786 67.0465 110.409 67.1406 111.066 67.1406V65.9176C110.526 65.9176 110.036 65.8405 109.591 65.6923L109.205 66.8525ZM164.559 82.4422L164.055 82.7886L164.061 82.7963L164.066 82.8038L164.559 82.4422ZM168.281 61.5242L167.76 61.2037L167.758 61.2072L168.281 61.5242ZM176.494 48.1777L177.015 48.4982L176.132 47.6851L176.494 48.1777ZM159.169 64.2191L159.624 64.6282L159.625 64.6265L159.169 64.2191ZM153.908 70.2507L153.442 69.8541L153.434 69.8644L153.908 70.2507ZM147.62 78.2072L147.135 77.8337L147.134 77.8354L147.62 78.2072ZM139.15 82.6988L138.647 83.0469L138.654 83.0564L138.661 83.0657L139.15 82.6988ZM138.636 76.0256L139.231 76.1672L139.233 76.1611L138.636 76.0256ZM140.176 71.149L140.737 71.3942L140.742 71.3818L140.176 71.149ZM141.973 66.9141L141.42 66.6537L141.416 66.6613L141.413 66.669L141.973 66.9141ZM143.898 62.6791L144.458 62.9242L143.455 62.2574L143.898 62.6791ZM136.198 70.764L136.63 71.1964L136.636 71.1911L136.641 71.1857L136.198 70.764ZM134.658 72.304L134.226 71.8716L134.658 72.304ZM132.22 72.0473L132.729 72.3865L132.787 72.2984L132.813 72.1956L132.22 72.0473ZM132.99 70.8923L132.557 70.46L132.99 70.8923ZM136.968 66.7857L137.413 67.2048L136.968 66.7857ZM141.203 61.7808L140.73 61.3936L140.724 61.4002L140.719 61.4069L141.203 61.7808ZM144.668 57.5459L145.141 57.9332L145.15 57.9227L144.668 57.5459ZM149.673 51.2576L149.206 50.8626L149.197 50.8734L149.673 51.2576ZM154.934 45.0977L155.397 45.4974L155.416 45.4761L155.432 45.4532L154.934 45.0977ZM156.346 43.9428L156.539 44.5229L156.581 44.5091L156.62 44.4897L156.346 43.9428ZM160.453 47.7927L160.948 48.1519L160.977 48.1112L161 48.0662L160.453 47.7927ZM146.593 72.0473L146.004 71.8841L145.384 74.1208L147.025 72.4797L146.593 72.0473ZM170.463 49.7177L170.853 50.1885L170.853 50.188L170.463 49.7177ZM186.504 42.7878L186.18 43.3063L186.193 43.3147L186.207 43.3223L186.504 42.7878ZM187.531 46.2527L188.093 46.4936L188.103 46.4702L188.111 46.4461L187.531 46.2527ZM182.269 53.4393L182.742 53.8274L182.747 53.8208L182.752 53.814L182.269 53.4393ZM177.007 59.9842L176.526 59.6073L176.521 59.614L176.516 59.6207L177.007 59.9842ZM173.414 65.1174L172.901 64.7852L172.9 64.7868L173.414 65.1174ZM169.949 71.919L170.522 72.1337L170.525 72.1261L169.949 71.919ZM169.051 79.3622L168.451 79.4821L169.051 79.3622ZM179.831 75.5123L180.217 75.986L180.225 75.9799L180.232 75.9737L179.831 75.5123ZM185.349 70.379L185.781 70.8114L185.787 70.8061L185.792 70.8007L185.349 70.379ZM190.226 65.1174L189.793 64.6851L189.782 64.6964L189.771 64.7084L190.226 65.1174ZM191.894 63.1925L192.367 63.5797L192.375 63.5697L192.383 63.5593L191.894 63.1925ZM193.177 64.4758L192.63 64.2023L192.624 64.2147L192.618 64.2274L193.177 64.4758ZM192.022 66.2724L191.59 65.84L191.572 65.858L191.555 65.8774L192.022 66.2724ZM187.787 70.8923L187.345 70.4697L187.341 70.4748L187.336 70.48L187.787 70.8923ZM181.627 76.9239L181.221 76.4668L181.213 76.4746L181.627 76.9239ZM175.083 82.1855L175.426 82.6912L175.083 82.1855ZM169.436 83.7557C167.228 83.7557 165.833 83.1446 165.052 82.0806L164.066 82.8038C165.168 84.3064 167.024 84.9786 169.436 84.9786V83.7557ZM165.063 82.0957C164.204 80.8465 163.759 79.3046 163.759 77.4372H162.536C162.536 79.5053 163.032 81.3001 164.055 82.7886L165.063 82.0957ZM163.759 77.4372C163.759 72.618 165.421 67.4228 168.804 61.8411L167.758 61.2072C164.297 66.9187 162.536 72.3322 162.536 77.4372H163.759ZM168.802 61.8446L177.015 48.4982L175.973 47.8572L167.76 61.2037L168.802 61.8446ZM176.132 47.6851C170.274 51.9921 164.469 57.3694 158.713 63.8117L159.625 64.6265C165.335 58.2357 171.079 52.9187 176.856 48.6703L176.132 47.6851ZM158.715 63.8101C157.17 65.5263 155.413 67.5412 153.442 69.8542L154.373 70.6472C156.339 68.3402 158.089 66.3341 159.624 64.6282L158.715 63.8101ZM153.434 69.8644C151.547 72.1795 149.448 74.8361 147.135 77.8337L148.104 78.5807C150.411 75.5895 152.504 72.9418 154.382 70.6369L153.434 69.8644ZM147.134 77.8354C145.598 79.8416 144.38 81.3327 143.479 82.3182C143.027 82.8124 142.667 83.1654 142.394 83.3901C142.257 83.5028 142.157 83.5716 142.088 83.6094C142.007 83.6541 142.022 83.6273 142.101 83.6273V84.8503C142.33 84.8503 142.534 84.7606 142.68 84.6797C142.839 84.5919 143.004 84.4722 143.172 84.3336C143.509 84.0557 143.914 83.6546 144.381 83.1437C145.319 82.1186 146.562 80.5939 148.105 78.5791L147.134 77.8354ZM142.101 83.6273C141.111 83.6273 140.303 83.2174 139.639 82.3319L138.661 83.0657C139.536 84.2336 140.696 84.8503 142.101 84.8503V83.6273ZM139.652 82.3508C138.915 81.286 138.606 80.4252 138.606 79.7472H137.383C137.383 80.7803 137.844 81.8872 138.647 83.0469L139.652 82.3508ZM138.606 79.7472C138.606 79.1445 138.802 77.9703 139.231 76.1672L138.042 75.884C137.615 77.6741 137.383 78.981 137.383 79.7472H138.606ZM139.233 76.1611C139.654 74.3063 140.157 72.7192 140.737 71.3941L139.616 70.9039C138.998 72.3166 138.474 73.9806 138.04 75.8901L139.233 76.1611ZM140.742 71.3818C141.339 69.9313 141.936 68.5238 142.533 67.1592L141.413 66.669C140.812 68.0421 140.211 69.4579 139.611 70.9162L140.742 71.3818ZM142.526 67.1744C143.213 65.7153 143.857 64.2986 144.458 62.9242L143.338 62.434C142.741 63.7974 142.102 65.204 141.42 66.6537L142.526 67.1744ZM143.455 62.2574L135.755 70.3423L136.641 71.1857L144.341 63.1008L143.455 62.2574ZM135.766 70.3316C135.595 70.5027 135.081 71.0161 134.226 71.8716L135.09 72.7364C135.946 71.8808 136.459 71.3675 136.63 71.1964L135.766 70.3316ZM134.226 71.8716C133.816 72.2812 133.468 72.5675 133.179 72.7479C132.883 72.9329 132.699 72.9758 132.605 72.9758V74.1988C133.024 74.1988 133.439 74.0278 133.827 73.785C134.223 73.5377 134.645 73.1824 135.09 72.7364L134.226 71.8716ZM132.605 72.9758C132.569 72.9758 132.567 72.9697 132.583 72.977C132.602 72.9859 132.616 73 132.621 73.0073C132.624 73.0108 132.611 72.9947 132.598 72.9404C132.585 72.8858 132.575 72.8043 132.575 72.689H131.352C131.352 73.0427 131.412 73.4179 131.626 73.7181C131.868 74.0563 132.23 74.1988 132.605 74.1988V72.9758ZM132.575 72.689C132.575 72.7031 132.572 72.6856 132.595 72.6273C132.618 72.5704 132.659 72.4907 132.729 72.3865L131.711 71.7081C131.52 71.9953 131.352 72.3341 131.352 72.689H132.575ZM132.813 72.1956C132.859 72.0128 133.024 71.7234 133.422 71.3247L132.557 70.46C132.101 70.9169 131.752 71.3974 131.627 71.899L132.813 72.1956ZM133.422 71.3247C134.71 70.0366 136.041 68.6633 137.413 67.2048L136.523 66.3667C135.158 67.817 133.836 69.1814 132.557 70.46L133.422 71.3247ZM137.413 67.2048C138.798 65.7336 140.223 64.0497 141.687 62.1547L140.719 61.4069C139.275 63.2763 137.876 64.9291 136.523 66.3667L137.413 67.2048ZM141.676 62.168C142.446 61.2269 143.601 59.8153 145.141 57.9331L144.195 57.1587C142.655 59.0409 141.5 60.4525 140.73 61.3936L141.676 62.168ZM145.15 57.9227C146.687 55.9578 148.354 53.8642 150.149 51.6419L149.197 50.8734C147.399 53.0999 145.729 55.1985 144.186 57.169L145.15 57.9227ZM150.14 51.6526C152.021 49.4295 153.773 47.3778 155.397 45.4974L154.472 44.6981C152.845 46.5821 151.089 48.6369 149.206 50.8627L150.14 51.6526ZM155.432 45.4532C155.811 44.9222 156.186 44.6407 156.539 44.5229L156.153 43.3627C155.48 43.587 154.913 44.0755 154.437 44.7423L155.432 45.4532ZM156.62 44.4897C156.867 44.3662 157.059 44.2803 157.202 44.2266C157.365 44.1656 157.405 44.1692 157.373 44.1692V42.9463C157.169 42.9463 156.953 43.0141 156.773 43.0815C156.574 43.1561 156.339 43.2627 156.073 43.3958L156.62 44.4897ZM157.373 44.1692C158.465 44.1692 159.172 44.3846 159.596 44.7142C159.991 45.0211 160.226 45.4954 160.226 46.2527H161.449C161.449 45.2134 161.107 44.3403 160.347 43.7488C159.616 43.1801 158.59 42.9463 157.373 42.9463V44.1692ZM160.226 46.2527C160.226 46.6604 160.125 47.0807 159.906 47.5192L161 48.0662C161.294 47.4781 161.449 46.8717 161.449 46.2527H160.226ZM159.958 47.4335C152.256 58.0453 147.576 66.2076 146.004 71.8841L147.182 72.2105C148.69 66.765 153.25 58.7576 160.948 48.1519L159.958 47.4335ZM147.025 72.4797C156.945 62.56 164.886 55.1325 170.853 50.1885L170.072 49.2468C164.062 54.2271 156.089 61.686 146.161 71.6149L147.025 72.4797ZM170.853 50.188C173.878 47.6748 176.447 45.8052 178.567 44.567C180.707 43.3168 182.311 42.7576 183.424 42.7576V41.5346C181.971 41.5346 180.131 42.2373 177.95 43.511C175.749 44.7967 173.122 46.7128 170.072 49.2474L170.853 50.188ZM183.424 42.7576C184.749 42.7576 185.639 42.9682 186.18 43.3063L186.828 42.2692C186 41.7518 184.837 41.5346 183.424 41.5346V42.7576ZM186.207 43.3223C186.715 43.6043 187.047 44.1594 187.047 45.2261H188.27C188.27 43.8972 187.833 42.8268 186.801 42.2532L186.207 43.3223ZM187.047 45.2261C187.047 45.6217 187.007 45.8904 186.951 46.0594L188.111 46.4461C188.226 46.1017 188.27 45.686 188.27 45.2261H187.047ZM186.969 46.0118C186.93 46.1014 186.805 46.3184 186.55 46.6979C186.305 47.0624 185.966 47.5414 185.529 48.1373C184.657 49.3283 183.41 50.9701 181.786 53.0646L182.752 53.814C184.379 51.7163 185.634 50.0643 186.516 48.8597C186.957 48.2578 187.307 47.7638 187.565 47.3796C187.813 47.0105 188.003 46.7035 188.093 46.4936L186.969 46.0118ZM181.797 53.0511C179.826 55.4495 178.069 57.635 176.526 59.6073L177.489 60.361C179.025 58.3979 180.776 56.2201 182.742 53.8274L181.797 53.0511ZM176.516 59.6207C175.057 61.5949 173.851 63.3168 172.901 64.7852L173.928 65.4496C174.86 64.0092 176.05 62.309 177.499 60.3476L176.516 59.6207ZM172.9 64.7868C171.341 67.2118 170.163 69.5204 169.374 71.7119L170.525 72.1261C171.276 70.0399 172.408 67.8141 173.929 65.4481L172.9 64.7868ZM169.377 71.7043C168.593 73.7949 168.183 75.6255 168.183 77.1806H169.406C169.406 75.8268 169.766 74.1497 170.522 72.1337L169.377 71.7043ZM168.183 77.1806C168.183 77.8334 168.276 78.6033 168.451 79.4821L169.651 79.2423C169.484 78.4101 169.406 77.7255 169.406 77.1806H168.183ZM168.451 79.4821C168.556 80.0046 168.78 80.467 169.173 80.7944C169.567 81.1231 170.061 81.257 170.591 81.257V80.034C170.265 80.034 170.075 79.9541 169.956 79.8549C169.835 79.7546 169.717 79.5754 169.651 79.2423L168.451 79.4821ZM170.591 81.257C171.732 81.257 173.104 80.7686 174.674 79.8967C176.257 79.0169 178.107 77.7092 180.217 75.986L179.444 75.0386C177.363 76.7375 175.576 77.9964 174.08 78.8277C172.569 79.6669 171.418 80.034 170.591 80.034V81.257ZM180.232 75.9737C182.21 74.254 184.06 72.5333 185.781 70.8114L184.917 69.9466C183.216 71.6469 181.387 73.3484 179.43 75.0508L180.232 75.9737ZM185.792 70.8007C187.507 69.0002 189.136 67.2422 190.68 65.5265L189.771 64.7084C188.235 66.4149 186.614 68.1645 184.906 69.9573L185.792 70.8007ZM190.658 65.5498C191.024 65.1835 191.598 64.52 192.367 63.5797L191.421 62.8053C190.65 63.7471 190.111 64.3669 189.793 64.6851L190.658 65.5498ZM192.383 63.5593C192.764 63.0511 193.06 62.6851 193.275 62.4507C193.384 62.332 193.458 62.2619 193.503 62.2262C193.526 62.2083 193.527 62.21 193.51 62.2187C193.502 62.223 193.426 62.264 193.306 62.264V61.041C193.143 61.041 193.014 61.098 192.945 61.1344C192.866 61.1752 192.797 61.225 192.739 61.2712C192.623 61.3639 192.5 61.4863 192.374 61.6243C192.118 61.9032 191.794 62.3071 191.405 62.8256L192.383 63.5593ZM193.306 62.264C193.284 62.264 193.238 62.2569 193.191 62.2254C193.148 62.1966 193.137 62.1696 193.144 62.1826C193.151 62.198 193.169 62.2422 193.184 62.3305C193.198 62.4171 193.207 62.5319 193.207 62.6791H194.43C194.43 62.3057 194.387 61.9346 194.237 61.6357C194.158 61.4776 194.041 61.3223 193.869 61.2079C193.694 61.0909 193.498 61.041 193.306 61.041V62.264ZM193.207 62.6791C193.207 62.7436 193.183 62.8993 193.083 63.1793C192.987 63.4472 192.838 63.7868 192.63 64.2023L193.724 64.7492C193.944 64.3092 194.116 63.9216 194.234 63.5906C194.348 63.2717 194.43 62.9569 194.43 62.6791H193.207ZM192.618 64.2274C192.296 64.9538 191.948 65.4817 191.59 65.84L192.455 66.7048C192.952 66.2076 193.374 65.5377 193.736 64.7241L192.618 64.2274ZM191.555 65.8774C190.626 66.9753 189.225 68.5046 187.345 70.4697L188.229 71.315C190.114 69.3446 191.536 67.794 192.489 66.6674L191.555 65.8774ZM187.336 70.48C185.555 72.4299 183.518 74.4255 181.221 76.4669L182.034 77.3809C184.357 75.3157 186.426 73.2903 188.239 71.3046L187.336 70.48ZM181.213 76.4746C179.007 78.5108 176.849 80.245 174.739 81.6799L175.426 82.6912C177.594 81.2172 179.799 79.4437 182.042 77.3732L181.213 76.4746ZM174.739 81.6799C172.646 83.1027 170.886 83.7557 169.436 83.7557V84.9786C171.237 84.9786 173.241 84.1771 175.426 82.6912L174.739 81.6799ZM190.395 71.534L189.838 71.2823L189.834 71.2909L190.395 71.534ZM195.4 63.1925L195.893 63.5547L194.98 62.7479L195.4 63.1925ZM193.09 65.3741L192.67 64.9295L193.09 65.3741ZM187.828 70.8923L188.261 71.3247L188.274 71.3115L188.286 71.2975L187.828 70.8923ZM187.187 68.5824L186.721 68.1859L186.709 68.2003L186.698 68.2155L187.187 68.5824ZM204.896 47.7927L204.434 47.3922L204.431 47.3962L204.896 47.7927ZM214.393 47.921L214.814 48.3649L214.82 48.3593L214.825 48.3534L214.393 47.921ZM208.361 54.4659L207.895 54.0703L207.888 54.0787L208.361 54.4659ZM195.913 72.9456L195.369 72.666L195.366 72.6722L195.913 72.9456ZM198.095 81.6722L198.288 82.2523L198.305 82.2466L198.322 82.2399L198.095 81.6722ZM203.228 78.7206L203.572 79.2262L203.579 79.2216L203.585 79.2168L203.228 78.7206ZM210.928 71.6623L210.496 71.2299L210.49 71.236L210.484 71.2421L210.928 71.6623ZM215.035 67.0424L215.497 67.4429L215.035 67.0424ZM224.018 56.0059L223.541 55.6227L223.537 55.6281L224.018 56.0059ZM241.728 47.0227L241.12 47.0902L241.123 47.1231L241.131 47.1554L241.728 47.0227ZM236.338 54.5943L235.879 54.1903L235.872 54.1975L235.866 54.2048L236.338 54.5943ZM226.328 67.2991L225.827 66.9484L225.823 66.9538L226.328 67.2991ZM228.124 79.7472L228.442 80.2696L228.449 80.2657L228.124 79.7472ZM234.541 74.9989L234.936 75.4659L234.946 75.4569L234.541 74.9989ZM240.958 68.9674L240.525 68.535L240.958 68.9674ZM246.476 63.0641L246.012 62.6662L246.476 63.0641ZM248.657 63.7058L248.064 63.5575V63.5575L248.657 63.7058ZM247.887 64.8608L247.455 64.4284L247.442 64.4411L247.43 64.4545L247.887 64.8608ZM242.626 70.6357L243.067 71.0596L243.075 71.0511L242.626 70.6357ZM235.696 77.3089L236.104 77.7642L235.696 77.3089ZM228.509 82.8272L228.184 82.3097L228.509 82.8272ZM217.473 83.4688L217.102 83.9546L217.111 83.9616L217.12 83.9684L217.473 83.4688ZM216.19 73.3306L216.772 73.5161L216.775 73.5087L216.19 73.3306ZM217.601 68.3257L218.194 68.474L217.136 67.9285L217.601 68.3257ZM206.95 79.1056L206.566 78.6293L206.56 78.6347L206.95 79.1056ZM199.378 84.1105L199.143 83.546L199.133 83.5501L199.123 83.5546L199.378 84.1105ZM194.502 84.9106C192.714 84.9106 191.469 84.352 190.65 83.3145C189.81 82.2495 189.338 80.5816 189.338 78.2072H188.115C188.115 80.7095 188.606 82.699 189.691 84.0723C190.796 85.4731 192.439 86.1336 194.502 86.1336V84.9106ZM189.338 78.2072C189.338 76.4391 189.862 74.301 190.956 71.7771L189.834 71.2909C188.703 73.9003 188.115 76.211 188.115 78.2072H189.338ZM190.952 71.7857C192.129 69.1805 193.773 66.4369 195.893 63.5547L194.907 62.8302C192.749 65.7657 191.057 68.5831 189.838 71.2823L190.952 71.7857ZM195.4 63.1925C194.98 62.7479 194.98 62.7479 194.98 62.7479C194.98 62.7479 194.98 62.7479 194.98 62.7479C194.98 62.748 194.98 62.748 194.98 62.748C194.98 62.748 194.98 62.748 194.98 62.748C194.98 62.7482 194.98 62.7482 194.98 62.7484C194.979 62.7485 194.979 62.7485 194.979 62.7486C194.979 62.7486 194.979 62.7487 194.979 62.7487C194.979 62.7488 194.979 62.7489 194.979 62.7489C194.979 62.749 194.979 62.749 194.979 62.7491C194.978 62.7499 194.979 62.7492 194.978 62.75C194.976 62.7518 194.974 62.7532 194.971 62.7564C194.968 62.7592 194.964 62.7629 194.96 62.7671C194.955 62.7717 194.958 62.7691 194.952 62.774C194.943 62.7833 194.954 62.7724 194.944 62.782C194.937 62.7884 194.942 62.7843 194.934 62.7911C194.926 62.799 194.932 62.7929 194.924 62.8012C194.913 62.8112 194.911 62.8131 194.899 62.8246C194.892 62.8314 194.878 62.8441 194.87 62.8523C194.862 62.8599 194.862 62.8598 194.853 62.8678C194.845 62.8758 194.845 62.8758 194.836 62.8843C194.831 62.8887 194.831 62.8884 194.827 62.8929C194.824 62.8956 194.825 62.8947 194.822 62.8973C194.821 62.8981 194.82 62.8988 194.82 62.8996C194.819 62.9003 194.818 62.9011 194.817 62.9018C194.811 62.9076 194.804 62.9143 194.797 62.9205C194.787 62.93 194.766 62.95 194.755 62.961C194.73 62.9842 194.756 62.9593 194.731 62.9828C194.712 63.0009 194.727 62.9872 194.707 63.0057C194.706 63.0067 194.705 63.0077 194.704 63.0086C194.703 63.0096 194.702 63.0106 194.701 63.0116C194.699 63.0137 194.697 63.0154 194.695 63.0175C194.669 63.0416 194.714 62.9995 194.688 63.0236C194.687 63.0246 194.686 63.0256 194.685 63.0266C194.684 63.0276 194.683 63.0286 194.682 63.0297C194.665 63.0458 194.673 63.0382 194.655 63.0547C194.655 63.055 194.628 63.0801 194.628 63.0808C194.589 63.1172 194.638 63.0712 194.599 63.108C194.594 63.1126 194.544 63.1594 194.538 63.1655C194.536 63.1678 194.525 63.1782 194.522 63.1805C194.497 63.2038 194.539 63.1648 194.514 63.1882C194.499 63.2026 194.521 63.1813 194.506 63.1958C194.48 63.2203 194.499 63.2024 194.473 63.2273C194.454 63.2444 194.474 63.2261 194.455 63.2434C194.452 63.247 194.451 63.2479 194.447 63.2515C194.433 63.2643 194.452 63.247 194.438 63.2598C194.437 63.2611 194.435 63.2625 194.434 63.2639C194.432 63.2653 194.431 63.2667 194.429 63.2681C194.427 63.2701 194.423 63.2743 194.421 63.2764C194.397 63.2985 194.426 63.2711 194.403 63.2933C194.394 63.3016 194.393 63.3021 194.384 63.3105C194.371 63.323 194.388 63.3067 194.375 63.3192C194.367 63.3273 194.375 63.3198 194.366 63.3279C194.328 63.3637 194.385 63.3098 194.347 63.3456C194.347 63.3462 194.338 63.354 194.338 63.3546C194.337 63.3557 194.329 63.3625 194.328 63.3636C194.324 63.3675 194.323 63.3689 194.319 63.3727C194.313 63.3783 194.315 63.3763 194.309 63.3819C194.299 63.3914 194.299 63.3907 194.289 63.4004C194.277 63.4121 194.282 63.4073 194.269 63.4192C194.268 63.4207 194.266 63.4223 194.264 63.4239C194.263 63.4255 194.261 63.427 194.259 63.4286C194.259 63.4293 194.25 63.4376 194.249 63.4382C194.226 63.46 194.19 63.4938 194.166 63.517C194.165 63.5179 194.145 63.5364 194.144 63.5374C194.114 63.5663 194.153 63.529 194.122 63.558C194.095 63.5835 194.138 63.5429 194.111 63.5685C194.109 63.5702 194.108 63.5719 194.106 63.5737C194.104 63.5754 194.102 63.5772 194.1 63.5789C194.076 63.602 194.102 63.5769 194.078 63.6001C194.062 63.6148 194.048 63.6282 194.032 63.6432C193.99 63.6828 194.028 63.6475 193.985 63.6875C193.933 63.7371 193.942 63.728 193.888 63.7791C193.875 63.7915 193.801 63.8611 193.787 63.8749C193.785 63.877 193.782 63.879 193.78 63.8811C193.778 63.8831 193.776 63.8852 193.774 63.8872C193.772 63.8893 193.769 63.8913 193.767 63.8934C193.765 63.8955 193.763 63.8975 193.761 63.8996C193.758 63.9016 193.756 63.9037 193.754 63.9058C193.752 63.9078 193.75 63.9099 193.748 63.912C193.745 63.9141 193.743 63.9161 193.741 63.9182C193.739 63.9203 193.737 63.9224 193.734 63.9245C193.685 63.9712 193.731 63.928 193.681 63.9751C193.678 63.9772 193.676 63.9793 193.674 63.9815C193.672 63.9836 193.669 63.9858 193.667 63.9879C193.665 63.99 193.663 63.9922 193.66 63.9943C193.658 63.9965 193.656 63.9986 193.654 64.0008C193.651 64.0029 193.649 64.0051 193.647 64.0072C193.644 64.0094 193.642 64.0116 193.64 64.0137C193.638 64.0159 193.635 64.0181 193.633 64.0202C193.631 64.0224 193.628 64.0246 193.626 64.0267C193.614 64.0381 193.583 64.0678 193.57 64.0795C193.561 64.0886 193.523 64.1238 193.513 64.1333C193.504 64.1423 193.508 64.1378 193.499 64.1469C193.496 64.1492 193.494 64.1514 193.492 64.1537C193.489 64.156 193.487 64.1583 193.484 64.1606C193.482 64.1628 193.48 64.1651 193.477 64.1674C193.475 64.1697 193.472 64.172 193.47 64.1743C193.455 64.1886 193.47 64.1738 193.455 64.1881C193.434 64.2085 193.359 64.2792 193.336 64.301C193.33 64.3064 193.311 64.3245 193.305 64.3299C193.281 64.3525 193.298 64.3365 193.274 64.3591C193.234 64.397 193.283 64.3505 193.243 64.3885C193.235 64.3959 193.219 64.4108 193.212 64.4182C193.204 64.4249 193.203 64.4265 193.196 64.4332C193.174 64.4537 193.202 64.4276 193.18 64.4482C193.17 64.4574 193.174 64.4541 193.164 64.4633C193.161 64.4658 193.159 64.4683 193.156 64.4708C193.153 64.4734 193.15 64.4759 193.148 64.4784C193.11 64.5145 193.154 64.4727 193.116 64.5089C193.104 64.5201 193.111 64.513 193.099 64.5242C193.095 64.5285 193.088 64.5353 193.083 64.5397C193.08 64.5422 193.077 64.5448 193.075 64.5474C193.072 64.55 193.069 64.5526 193.067 64.5551C193.064 64.5577 193.061 64.5603 193.058 64.5629C193.056 64.5655 193.053 64.5681 193.05 64.5707C193.012 64.6066 193.055 64.566 193.017 64.602C192.973 64.6439 192.995 64.6231 192.95 64.6654C192.913 64.7004 192.851 64.7588 192.812 64.7953C192.806 64.8013 192.784 64.8224 192.777 64.8285C192.77 64.8348 192.749 64.8555 192.742 64.8619C192.733 64.8706 192.715 64.8868 192.706 64.8956C192.694 64.9073 192.683 64.9177 192.67 64.9295L193.51 65.8186C193.516 65.8127 193.522 65.8076 193.528 65.8016C193.531 65.7988 193.534 65.796 193.537 65.7932C193.54 65.7903 193.543 65.7875 193.546 65.7847C193.559 65.7722 193.568 65.7634 193.581 65.751C193.601 65.7326 193.633 65.7025 193.652 65.6844C193.682 65.6565 193.762 65.5809 193.79 65.5545C193.805 65.5403 193.909 65.4415 193.923 65.4288C193.934 65.4184 193.928 65.4237 193.939 65.4134C193.961 65.3927 193.933 65.4187 193.955 65.398C193.958 65.3955 193.961 65.3929 193.963 65.3904C193.966 65.3878 193.969 65.3853 193.971 65.3827C193.974 65.3801 193.985 65.3701 193.988 65.3675C194.002 65.3543 194.006 65.3505 194.02 65.3373C194.024 65.3335 194.031 65.3261 194.035 65.3223C194.038 65.3198 194.041 65.3173 194.043 65.3148C194.046 65.3123 194.049 65.3098 194.051 65.3073C194.06 65.299 194.105 65.2562 194.114 65.2482C194.165 65.2004 194.125 65.2376 194.175 65.1902C194.232 65.1363 194.239 65.1296 194.295 65.0772C194.297 65.0749 194.3 65.0726 194.302 65.0703C194.305 65.068 194.307 65.0657 194.31 65.0634C194.312 65.0611 194.314 65.0588 194.317 65.0565C194.319 65.0542 194.322 65.052 194.324 65.0497C194.326 65.0474 194.329 65.0451 194.331 65.0428C194.334 65.0405 194.336 65.0383 194.339 65.036C194.341 65.0337 194.343 65.0314 194.346 65.0292C194.348 65.0269 194.351 65.0246 194.353 65.0224C194.38 64.9972 194.384 64.9934 194.41 64.9686C194.434 64.9457 194.414 64.9649 194.438 64.9421C194.445 64.935 194.444 64.936 194.452 64.9289C194.454 64.9268 194.457 64.9246 194.459 64.9224C194.461 64.9202 194.463 64.918 194.466 64.9158C194.475 64.9074 194.512 64.8723 194.52 64.8642C194.548 64.8386 194.547 64.8388 194.574 64.8136C194.58 64.8082 194.595 64.794 194.6 64.7887C194.618 64.7719 194.609 64.7808 194.626 64.7641C194.641 64.7503 194.625 64.7655 194.639 64.7518C194.642 64.7498 194.644 64.7478 194.646 64.7458C194.648 64.7437 194.65 64.7417 194.652 64.7397C194.672 64.7213 194.658 64.7339 194.678 64.7156C194.711 64.6839 194.695 64.6995 194.728 64.6682C194.741 64.6555 194.739 64.6574 194.753 64.6449C194.755 64.6429 194.757 64.641 194.759 64.6391C194.761 64.6372 194.763 64.6352 194.765 64.6333C194.767 64.6314 194.769 64.6295 194.771 64.6276C194.773 64.6257 194.775 64.6237 194.777 64.6218C194.787 64.6128 194.78 64.6194 194.789 64.6104C194.791 64.6085 194.793 64.6066 194.795 64.6047C194.797 64.6028 194.799 64.601 194.801 64.5991C194.809 64.592 194.818 64.5835 194.825 64.5766C194.851 64.5524 194.847 64.5562 194.872 64.5324C194.922 64.4853 194.868 64.5359 194.917 64.4892C194.925 64.4819 194.932 64.4753 194.94 64.468C194.978 64.4321 194.924 64.483 194.962 64.4471C194.984 64.4261 194.984 64.4268 195.005 64.4061C195.024 64.3888 195.072 64.3432 195.089 64.3273C195.092 64.3246 195.127 64.2918 195.129 64.2895C195.172 64.249 195.125 64.2928 195.168 64.2527C195.182 64.2392 195.173 64.2482 195.187 64.2348C195.194 64.2279 195.189 64.2327 195.196 64.2259C195.198 64.2244 195.199 64.2229 195.201 64.2215C195.203 64.22 195.204 64.2185 195.206 64.217C195.237 64.1874 195.211 64.2118 195.242 64.1824C195.272 64.1544 195.231 64.1935 195.26 64.1655C195.285 64.1417 195.253 64.1726 195.278 64.1489C195.285 64.142 195.288 64.1393 195.295 64.1325C195.32 64.109 195.279 64.1479 195.304 64.1244C195.309 64.1197 195.307 64.1211 195.312 64.1164C195.316 64.1128 195.325 64.104 195.329 64.1005C195.335 64.0946 195.331 64.0986 195.337 64.0927C195.341 64.0889 195.342 64.0887 195.346 64.085C195.348 64.0829 195.376 64.0563 195.378 64.0546C195.402 64.0315 195.385 64.0481 195.409 64.0253C195.425 64.0102 195.408 64.0261 195.424 64.0111C195.427 64.0083 195.436 63.9997 195.439 63.9971C195.471 63.9665 195.421 64.0139 195.453 63.9834C195.465 63.9719 195.455 63.9813 195.467 63.9699C195.509 63.9304 195.454 63.9829 195.495 63.9438C195.523 63.9175 195.481 63.9574 195.508 63.9312C195.509 63.9301 195.511 63.9291 195.512 63.928C195.513 63.927 195.514 63.926 195.515 63.9249C195.516 63.9243 195.521 63.9193 195.521 63.9188C195.556 63.8863 195.513 63.9269 195.547 63.8948C195.557 63.8855 195.586 63.8579 195.594 63.8501C195.6 63.845 195.611 63.834 195.616 63.8293C195.625 63.8209 195.618 63.8277 195.627 63.8193C195.634 63.8125 195.625 63.8212 195.632 63.8144C195.633 63.8136 195.634 63.8128 195.635 63.812C195.635 63.8112 195.636 63.8104 195.637 63.8096C195.664 63.7838 195.63 63.8164 195.657 63.7909C195.659 63.7894 195.674 63.7746 195.675 63.7734C195.692 63.7581 195.677 63.7718 195.693 63.7569C195.703 63.7475 195.691 63.7583 195.701 63.749C195.712 63.7386 195.698 63.7518 195.709 63.7414C195.716 63.7346 195.733 63.7191 195.739 63.7137C195.744 63.7084 195.759 63.6942 195.763 63.6903C195.778 63.6769 195.76 63.6931 195.774 63.6802C195.779 63.6752 195.774 63.6804 195.779 63.6755C195.78 63.6747 195.781 63.6741 195.781 63.6733C195.783 63.6716 195.782 63.6728 195.784 63.6711C195.816 63.6401 195.768 63.6857 195.8 63.6562C195.81 63.6466 195.802 63.6537 195.811 63.6455C195.814 63.6429 195.812 63.6441 195.815 63.6418C195.82 63.6373 195.813 63.6433 195.818 63.6392C195.819 63.6376 195.818 63.6387 195.819 63.6376C195.819 63.6373 195.819 63.6375 195.819 63.6373C195.82 63.6373 195.82 63.6373 195.82 63.6372C195.82 63.6372 195.82 63.6372 195.82 63.6372C195.82 63.6371 195.82 63.6371 195.82 63.6371C195.82 63.637 195.82 63.637 195.82 63.637C195.82 63.637 195.82 63.637 195.4 63.1925ZM192.67 64.9295C191.113 66.4004 189.346 68.2541 187.37 70.4872L188.286 71.2975C190.246 69.0818 191.987 67.2567 193.51 65.8186L192.67 64.9295ZM187.396 70.46C187.176 70.68 186.907 70.7942 186.545 70.7942V72.0172C187.21 72.0172 187.796 71.7891 188.261 71.3247L187.396 70.46ZM186.545 70.7942C186.522 70.7942 186.53 70.7905 186.556 70.8011C186.569 70.8065 186.584 70.8147 186.599 70.8263C186.615 70.8379 186.628 70.8507 186.638 70.8633C186.658 70.8884 186.659 70.9025 186.655 70.8872C186.65 70.8707 186.643 70.8322 186.643 70.764H185.42C185.42 71.0432 185.473 71.3658 185.683 71.6272C185.913 71.9147 186.239 72.0172 186.545 72.0172V70.7942ZM186.643 70.764C186.643 70.7052 186.68 70.5266 186.861 70.1839C187.033 69.8595 187.301 69.4495 187.676 68.9493L186.698 68.2155C186.303 68.7419 185.993 69.2088 185.78 69.6117C185.577 69.9962 185.42 70.395 185.42 70.764H186.643ZM187.652 68.9789L205.362 48.1892L204.431 47.3962L186.721 68.1859L187.652 68.9789ZM205.359 48.1932C207.502 45.7202 209.784 44.5542 212.211 44.5542V43.3313C209.335 43.3313 206.74 44.7319 204.434 47.3922L205.359 48.1932ZM212.211 44.5542C213.132 44.5542 213.71 44.7372 214.048 45.0018C214.358 45.244 214.552 45.6224 214.552 46.2527H215.774C215.774 45.3431 215.476 44.5665 214.802 44.0387C214.156 43.5333 213.258 43.3313 212.211 43.3313V44.5542ZM214.552 46.2527C214.552 46.6561 214.385 47.064 213.961 47.4887L214.825 48.3534C215.427 47.7514 215.774 47.0471 215.774 46.2527H214.552ZM213.972 47.4771C212.324 49.039 210.297 51.2395 207.895 54.0703L208.828 54.8615C211.217 52.0458 213.211 49.8831 214.814 48.3649L213.972 47.4771ZM207.888 54.0787C205.566 56.9165 203.289 59.9678 201.055 63.2322L202.065 63.9228C204.28 60.685 206.537 57.6619 208.835 54.8531L207.888 54.0787ZM201.055 63.2322C198.819 66.5008 196.923 69.6455 195.369 72.666L196.457 73.2253C197.984 70.257 199.852 67.1562 202.065 63.9228L201.055 63.2322ZM195.366 72.6722C193.899 75.6077 193.12 78.0636 193.12 80.0039H194.343C194.343 78.3509 195.019 76.1012 196.46 73.2191L195.366 72.6722ZM193.12 80.0039C193.12 80.8225 193.253 81.5434 193.608 82.0755C193.992 82.6514 194.58 82.9253 195.272 82.9253V81.7024C194.936 81.7024 194.755 81.5912 194.625 81.3972C194.467 81.1593 194.343 80.7252 194.343 80.0039H193.12ZM195.272 82.9253C195.978 82.9253 197.001 82.6813 198.288 82.2523L197.902 81.0921C196.622 81.5186 195.763 81.7024 195.272 81.7024V82.9253ZM198.322 82.2399C199.668 81.7017 201.422 80.688 203.572 79.2262L202.884 78.2149C200.756 79.662 199.089 80.6161 197.868 81.1044L198.322 82.2399ZM203.585 79.2168C205.769 77.6445 208.366 75.2605 211.372 72.0825L210.484 71.2421C207.501 74.3952 204.965 76.7167 202.871 78.2243L203.585 79.2168ZM211.36 72.0947C211.893 71.5621 213.279 70.0016 215.497 67.4429L214.573 66.6419C212.341 69.2164 210.99 70.7359 210.496 71.2299L211.36 72.0947ZM215.497 67.4429C217.731 64.8652 220.732 61.1774 224.499 56.3837L223.537 55.6281C219.775 60.4165 216.787 64.0863 214.573 66.6419L215.497 67.4429ZM224.494 56.3891C227.825 52.2475 230.564 49.1599 232.717 47.1129C233.794 46.0886 234.709 45.339 235.467 44.8492C236.242 44.3476 236.776 44.1692 237.108 44.1692V42.9463C236.413 42.9463 235.631 43.2866 234.802 43.8223C233.956 44.3699 232.978 45.1763 231.874 46.2267C229.663 48.3291 226.884 51.4656 223.541 55.6227L224.494 56.3891ZM237.108 44.1692C238.446 44.1692 239.388 44.4445 240.013 44.9132C240.621 45.3688 241.006 46.0655 241.12 47.0902L242.335 46.9552C242.193 45.67 241.68 44.6342 240.747 43.9348C239.832 43.2486 238.592 42.9463 237.108 42.9463V44.1692ZM241.131 47.1554C241.122 47.116 241.137 47.1306 241.108 47.2368C241.082 47.335 241.03 47.4737 240.939 47.6584C240.756 48.0278 240.451 48.5187 240.01 49.1385C239.13 50.3747 237.756 52.0565 235.879 54.1903L236.797 54.9982C238.683 52.8543 240.09 51.1354 241.007 49.8477C241.464 49.2056 241.811 48.6538 242.035 48.1997C242.147 47.9727 242.236 47.7544 242.29 47.5506C242.343 47.3546 242.376 47.1219 242.324 46.8901L241.131 47.1554ZM235.866 54.2048C230.99 60.1079 227.639 64.3596 225.827 66.9484L226.829 67.6497C228.61 65.1052 231.932 60.8871 236.809 54.9837L235.866 54.2048ZM225.823 66.9538C222.481 71.8382 220.711 75.781 220.711 78.7206H221.934C221.934 76.1847 223.501 72.5132 226.832 67.6444L225.823 66.9538ZM220.711 78.7206C220.711 79.7121 220.877 80.5636 221.299 81.1825C221.75 81.8434 222.434 82.1553 223.248 82.1553V80.9324C222.779 80.9324 222.5 80.7738 222.309 80.4936C222.09 80.1713 221.934 79.6112 221.934 78.7206H220.711ZM223.248 82.1553C224.701 82.1553 226.445 81.4856 228.442 80.2695L227.807 79.2249C225.869 80.4043 224.361 80.9324 223.248 80.9324V82.1553ZM228.449 80.2657C230.531 78.9642 232.694 77.3632 234.936 75.4657L234.146 74.5322C231.94 76.3991 229.824 77.9636 227.8 79.2287L228.449 80.2657ZM234.946 75.4569C237.18 73.4811 239.328 71.4621 241.39 69.3998L240.525 68.535C238.481 70.5793 236.351 72.5813 234.136 74.541L234.946 75.4569ZM241.39 69.3998C243.537 67.2527 245.388 65.2733 246.94 63.4621L246.012 62.6662C244.484 64.4482 242.656 66.4043 240.525 68.535L241.39 69.3998ZM246.94 63.4621C247.4 62.9258 247.759 62.7773 248.016 62.7773V61.5543C247.246 61.5543 246.579 62.0047 246.012 62.6662L246.94 63.4621ZM248.016 62.7773C248.178 62.7773 248.188 62.8175 248.161 62.7907C248.134 62.7639 248.174 62.7734 248.174 62.9358H249.397C249.397 62.5849 249.309 62.2094 249.026 61.9259C248.742 61.6425 248.367 61.5543 248.016 61.5543V62.7773ZM248.174 62.9358C248.174 63.028 248.148 63.2239 248.064 63.5575L249.251 63.8541C249.338 63.5033 249.397 63.1859 249.397 62.9358H248.174ZM248.064 63.5575C248.019 63.7403 247.854 64.0297 247.455 64.4284L248.32 65.2932C248.777 64.8363 249.125 64.3557 249.251 63.8541L248.064 63.5575ZM247.43 64.4545C246.065 65.9902 244.315 67.9119 242.177 70.2202L243.075 71.0511C245.215 68.7395 246.972 66.8112 248.345 65.267L247.43 64.4545ZM242.185 70.2119C240.058 72.4246 237.759 74.6385 235.288 76.8536L236.104 77.7642C238.596 75.5305 240.917 73.2956 243.067 71.0595L242.185 70.2119ZM235.288 76.8536C232.827 79.0599 230.459 80.8771 228.184 82.3097L228.835 83.3446C231.18 81.8683 233.603 80.0068 236.104 77.7642L235.288 76.8536ZM228.184 82.3097C225.912 83.7399 224.062 84.3973 222.606 84.3973V85.6203C224.401 85.6203 226.487 84.8233 228.835 83.3446L228.184 82.3097ZM222.606 84.3973C220.751 84.3973 219.166 83.9155 217.826 82.9693L217.12 83.9684C218.689 85.0755 220.526 85.6203 222.606 85.6203V84.3973ZM217.844 82.9831C216.546 81.9903 215.903 80.6752 215.903 78.9772H214.68C214.68 81.0436 215.491 82.7229 217.102 83.9546L217.844 82.9831ZM215.903 78.9772C215.903 77.161 216.192 75.3413 216.772 73.516L215.607 73.1452C214.99 75.0844 214.68 77.0291 214.68 78.9772H215.903ZM216.775 73.5087C217.375 71.5351 217.849 69.8562 218.194 68.474L217.008 68.1774C216.669 69.5329 216.202 71.1907 215.605 73.1526L216.775 73.5087ZM217.136 67.9285C213.128 72.6193 209.605 76.1814 206.566 78.6294L207.333 79.5817C210.454 77.0676 214.033 73.4431 218.066 68.723L217.136 67.9285ZM206.56 78.6347C203.583 81.1014 201.114 82.725 199.143 83.546L199.613 84.6749C201.749 83.7849 204.328 82.0719 207.34 79.5764L206.56 78.6347ZM199.123 83.5546C197.092 84.4859 195.564 84.9106 194.502 84.9106V86.1336C195.835 86.1336 197.558 85.6173 199.633 84.6664L199.123 83.5546Z" fill="url(#paint0_linear_202_60)" fill-opacity="0.08"/>
<defs>
<linearGradient id="paint0_linear_202_60" x1="203.424" y1="-11.8895" x2="-20.7096" y2="54.304" gradientUnits="userSpaceOnUse">
<stop stop-color="#FF6533"/>
<stop offset="1" stop-color="#FFA733"/>
</linearGradient>
</defs>
</svg>
