<svg xmlns="http://www.w3.org/2000/svg" width="148" height="147" fill="none"><path fill="#A3A3A3" d="M146.804 142.459c.635-.235.959-.941.723-1.576l-3.837-10.348a1.227 1.227 0 0 0-2.299.852l3.41 9.199-9.198 3.411a1.226 1.226 0 1 0 .852 2.299l10.349-3.837ZM74.646 78.09a1.226 1.226 0 0 0-2.23-1.023l2.23 1.023ZM63.718 43.144l.677-1.022-.677 1.022Zm8.699 33.923a1.226 1.226 0 0 0 2.229 1.023l-2.23-1.023ZM5.088 5.765a1.226 1.226 0 0 0 1.355-2.044L5.088 5.765Zm13.773 6.185a1.226 1.226 0 0 0-1.355 2.044l1.355-2.044Zm6.924 7.53a1.226 1.226 0 1 0 1.355-2.045l-1.355 2.045Zm13.773 6.184a1.226 1.226 0 1 0-1.354 2.045l1.354-2.045Zm6.925 7.53a1.226 1.226 0 1 0 1.354-2.044l-1.354 2.045Zm13.773 6.185a1.226 1.226 0 1 0-1.355 2.044l1.355-2.044Zm5.736 7.057a1.226 1.226 0 0 0 1.628-1.834l-1.628 1.834Zm8.787 7.952a1.226 1.226 0 1 0-2.241.997l2.24-.997Zm-.206 8.139a1.226 1.226 0 1 0 2.43-.334l-2.43.334Zm1.506 11.756a1.226 1.226 0 0 0-2.35-.7l2.35.7Zm-5.22 7.019a1.226 1.226 0 0 0 2.36.664l-2.36-.664Zm1.9 12.935a1.226 1.226 0 0 0-2.404.484l2.404-.484Zm.723 8.919a1.227 1.227 0 1 0 2.14-1.2l-2.14 1.2Zm10.487 7.805a1.226 1.226 0 1 0-1.356 2.043l1.356-2.043Zm6.54 6.053a1.227 1.227 0 0 0 1.023-2.229l-1.023 2.229Zm12.885 3.216a1.226 1.226 0 1 0-1.023 2.229l1.023-2.229Zm6.885 5.859a1.227 1.227 0 0 0 1.023-2.229l-1.023 2.229Zm12.886 3.216a1.226 1.226 0 0 0-1.024 2.229l1.024-2.229Zm6.885 5.859a1.227 1.227 0 0 0 1.023-2.229l-1.023 2.229Zm12.885 3.216a1.225 1.225 0 1 0-1.023 2.229l1.023-2.229ZM.949 3.022l4.139 2.743 1.355-2.044L2.303.978.95 3.022Zm16.557 10.972 8.28 5.486 1.354-2.045-8.279-5.485-1.355 2.044Zm20.698 13.715 8.279 5.486 1.354-2.045-8.279-5.486-1.354 2.045ZM58.9 41.423l4.14 2.743 1.354-2.044-4.14-2.743-1.354 2.044Zm4.14 2.743a26.431 26.431 0 0 1 2.95 2.27l1.63-1.834a28.9 28.9 0 0 0-3.226-2.48l-1.355 2.044Zm9.497 11.22a26.409 26.409 0 0 1 2.035 7.14l2.43-.333a28.86 28.86 0 0 0-2.224-7.805l-2.241.997Zm1.19 18.197a26.44 26.44 0 0 1-1.311 3.484l2.229 1.023a28.89 28.89 0 0 0 1.433-3.807l-2.35-.7Zm-1.311 3.484a28.96 28.96 0 0 0-1.559 4.235l2.361.664a26.506 26.506 0 0 1 1.427-3.876l-2.23-1.023Zm-2.062 17.654a28.916 28.916 0 0 0 3.127 8.435l2.14-1.2a26.462 26.462 0 0 1-2.863-7.72l-2.404.485Zm12.258 18.283a28.97 28.97 0 0 0 3.942 2.195l1.023-2.229a26.53 26.53 0 0 1-3.609-2.009l-1.356 2.043Zm3.942 2.195 3.954 1.815 1.023-2.229-3.954-1.815-1.023 2.229Zm15.816 7.26 7.908 3.63 1.023-2.229-7.908-3.63-1.023 2.229Zm19.77 9.075 7.909 3.63 1.023-2.229-7.908-3.63-1.024 2.229Zm19.771 9.075 3.954 1.815 1.023-2.229-3.954-1.815-1.023 2.229Z"/></svg>